<svg width="526" height="743" viewBox="0 0 526 743" fill="none" xmlns="http://www.w3.org/2000/svg">
<path style="mix-blend-mode:screen" opacity="0.32" d="M79.9271 648.653C102.5 685.478 90.1873 746.628 137.774 736.714C185.361 726.799 68.9281 683.344 89.9616 622.686C110.995 562.029 129.463 658.054 161.208 660.969C192.954 663.884 163.096 600.148 121.748 574.181C80.399 548.214 156.325 504.594 215.67 552.587C275.015 600.579 290.22 629.645 346.159 601.133C402.098 572.621 156.756 558.437 119.018 484.457C81.2814 410.478 91.8289 350.149 146.27 327.447C200.71 304.744 195.088 427.187 222.77 447.016C250.452 466.845 282.402 453.174 261.759 438.641C241.115 424.108 178.261 396.91 206.353 336.519C234.446 276.129 248.215 317.655 255.602 369.178C262.99 420.701 386.461 418.751 330.625 335.822C274.789 252.892 320.796 239.796 373.205 240.166C425.614 240.535 406.038 208.677 379.361 198.25C352.685 187.822 336.268 162.019 350.879 153.87C365.489 145.721 382.357 191.64 397.727 184.887C413.097 178.133 393.007 140.877 345.154 135.211C297.3 129.546 326.295 65.4194 378.787 68.7859C431.278 72.1523 416.195 118.051 456.005 135.314C495.815 152.577 493.598 77.0993 454.179 64.4957C414.759 51.8921 399.656 1.43679 438.214 -0.000100041C476.772 -1.43699 454.63 61.2935 475.602 60.6982C475.602 60.6982 462.284 65.132 460.54 43.784C458.796 22.4359 419.725 15.1899 429.144 37.2153C438.563 59.2408 530.33 93.9725 525.836 154.24C521.342 214.507 465.855 151.202 423.398 110.846C380.941 70.4896 334.811 111.359 377.74 140.569C420.669 169.779 444.985 187.145 433.658 211.428C422.331 235.711 389.642 178.872 373.718 177.148C357.794 175.424 367.972 190.244 404.786 210.463C441.6 230.682 411.783 247.432 384.409 246.324C357.035 245.215 388.349 248.643 419.622 320.221C450.895 391.799 408.685 467.194 324.9 443.67C241.115 420.146 256.731 351.299 240.91 358.689C225.089 366.078 245.917 432.894 314.414 446.955C382.911 461.016 291.718 524.034 234.507 468.097C177.297 412.161 172.084 371.251 149.635 395.37C127.186 419.49 149.409 537.007 220.615 526.476C291.821 515.946 358.41 476.493 406.51 569.296C454.61 662.098 323.279 637.404 247.805 592.245C172.331 547.085 254.433 664.089 204.342 671.479C154.252 678.869 134.696 639.395 129.504 649.905C124.313 660.415 134.06 675.338 182.406 675.441C230.752 675.543 202.414 749.009 137.651 741.784C72.8886 734.558 74.6328 667.23 33.9408 667.887C-6.75116 668.544 22.0595 722.694 62.8746 726.286L57.4777 732.773C57.4777 732.773 -7.94141 716.084 0.800354 665.67C9.54205 615.255 57.3136 611.807 79.9271 648.653ZM347.472 313.714C363.273 359.653 462.387 373.078 396.106 280.871C377.555 255.294 331.569 267.795 347.472 313.714ZM278.38 516.397C229.254 525.409 225.376 554.147 300.953 565.847C385.907 579.066 327.444 507.407 278.298 516.397H278.38Z" fill="url(#paint0_linear_1969_30940)"/>
<defs>
<linearGradient id="paint0_linear_1969_30940" x1="587.213" y1="138.229" x2="77.2604" y2="648.018" gradientUnits="userSpaceOnUse">
<stop offset="0.29" stop-color="#000606"/>
<stop offset="0.35" stop-color="#004242"/>
<stop offset="0.43" stop-color="#008585"/>
<stop offset="0.49" stop-color="#00B9B9"/>
<stop offset="0.55" stop-color="#00DFDF"/>
<stop offset="0.6" stop-color="#00F7F7"/>
<stop offset="0.63" stop-color="#00FFFF"/>
<stop offset="0.68" stop-color="#00CFCF"/>
<stop offset="0.77" stop-color="#008686"/>
<stop offset="0.85" stop-color="#004D4D"/>
<stop offset="0.92" stop-color="#002323"/>
<stop offset="0.97" stop-color="#000909"/>
<stop offset="1"/>
</linearGradient>
</defs>
</svg>
