<svg width="512" height="512" viewBox="0 0 512 512" fill="none" xmlns="http://www.w3.org/2000/svg">
<rect width="512" height="512" rx="32" fill="#FFD011"/>
<path d="M440.889 256C440.889 265.807 436.993 275.213 430.058 282.147C423.124 289.082 413.718 292.978 403.911 292.978H292.978V403.911C292.978 413.718 289.082 423.124 282.147 430.058C275.213 436.993 265.807 440.889 256 440.889C246.193 440.889 236.787 436.993 229.853 430.058C222.918 423.124 219.022 413.718 219.022 403.911V292.978H108.089C98.2817 292.978 88.8763 289.082 81.9416 282.147C75.0069 275.213 71.1111 265.807 71.1111 256C71.1111 246.193 75.0069 236.787 81.9416 229.853C88.8763 222.918 98.2817 219.022 108.089 219.022H219.022V108.089C219.022 98.2817 222.918 88.8763 229.853 81.9416C236.787 75.0069 246.193 71.1111 256 71.1111C265.807 71.1111 275.213 75.0069 282.147 81.9416C289.082 88.8763 292.978 98.2817 292.978 108.089V219.022H403.911C413.718 219.022 423.124 222.918 430.058 229.853C436.993 236.787 440.889 246.193 440.889 256Z" fill="#202225"/>
</svg>
