<svg width="200" height="200" viewBox="0 0 200 200" fill="none" xmlns="http://www.w3.org/2000/svg">
<rect width="200" height="200" rx="4" fill="#FFD011"/>
<g clip-path="url(#clip0_3087_35836)">
<path d="M70.6665 111.989C67.4932 111.989 64.3091 111.989 61.1358 111.989C59.2493 111.935 58.4424 111.13 58.4424 109.226C58.4424 103.104 58.4424 96.9828 58.4424 90.8613C58.4424 88.9248 59.2929 88 61.234 88H80.1753C80.5406 87.9507 80.9125 87.9856 81.2622 88.1021C81.6119 88.2187 81.9301 88.4137 82.1924 88.6722C82.4547 88.9307 82.654 89.2458 82.775 89.5933C82.8961 89.9407 82.9356 90.3113 82.8905 90.6764C82.8905 96.8849 82.8905 103.097 82.8905 109.313C82.8905 111.141 82.0509 111.956 80.208 111.967C77.0348 112 73.8506 111.989 70.6665 111.989ZM63.3713 92.9175V107.159H77.9398V92.9175H63.3713Z" fill="#202225"/>
<path d="M38.8142 92.8522H32.0206C30.1668 92.8413 29 91.9166 29 90.4479C29 88.9791 30.1559 88 31.9988 88H50.6566C52.4231 88 53.4918 88.9139 53.5027 90.4044C53.5136 91.8948 52.4777 92.8196 50.7002 92.8305C48.432 92.8305 46.1639 92.8305 43.6885 92.8305V94.3645C43.6885 99.3037 43.6885 104.254 43.6885 109.193C43.6885 111.064 42.9143 111.967 41.3222 111.989C39.7301 112.011 38.8142 111.032 38.8142 109.139C38.8142 104.243 38.8142 99.3472 38.8142 94.4515V92.8522Z" fill="#202225"/>
<path d="M102.508 102.404C102.508 104.809 102.508 107.061 102.508 109.313C102.58 109.926 102.409 110.543 102.032 111.032C101.656 111.522 101.102 111.845 100.49 111.935C100.134 112.023 99.7622 112.027 99.4047 111.944C99.0471 111.861 98.7142 111.696 98.4334 111.46C98.1525 111.224 97.9315 110.926 97.7887 110.588C97.6459 110.251 97.5852 109.885 97.6116 109.519C97.6116 107.213 97.6116 104.907 97.6116 102.393H91.7231C91.1779 102.393 90.6326 102.393 90.0983 102.393C89.5236 102.393 88.9703 102.176 88.5481 101.787C88.1259 101.398 87.8657 100.865 87.8192 100.294C87.7731 100.005 87.7857 99.7103 87.8563 99.4267C87.9268 99.1431 88.0539 98.8766 88.23 98.643C88.4061 98.4095 88.6275 98.2137 88.881 98.0674C89.1346 97.9211 89.415 97.8273 89.7057 97.7915C91.1052 97.6679 92.5103 97.6207 93.9149 97.65H97.6007C97.6007 95.3436 97.6007 93.1895 97.6007 91.0245C97.6007 89.0879 98.5058 88 100.021 88C101.537 88 102.497 89.0879 102.508 90.9374C102.508 93.1133 102.508 95.2892 102.508 97.5956H106.695C107.786 97.5956 108.789 97.5956 109.836 97.5956C110.482 97.5927 111.102 97.8452 111.562 98.2979C112.022 98.7505 112.283 99.3664 112.289 100.011C112.29 100.342 112.222 100.67 112.09 100.974C111.957 101.278 111.763 101.551 111.519 101.777C111.275 102.002 110.986 102.174 110.672 102.282C110.358 102.39 110.025 102.431 109.694 102.404C107.349 102.426 104.994 102.404 102.508 102.404Z" fill="#202225"/>
<path d="M129.54 88C132.626 88 135.712 88 138.798 88C140.587 88 141.612 88.903 141.601 90.4261C141.59 91.9492 140.576 92.8305 138.777 92.8305H119.988C118.2 92.8305 117.196 91.9275 117.196 90.4044C117.196 88.8812 118.2 88 120.01 88C123.194 88 126.367 88 129.54 88Z" fill="#202225"/>
<path d="M151.393 99.9674C151.393 103.09 151.393 106.223 151.393 109.345C151.439 109.673 151.413 110.006 151.317 110.322C151.221 110.638 151.058 110.93 150.838 111.177C150.618 111.425 150.348 111.621 150.044 111.754C149.741 111.887 149.412 111.952 149.081 111.946C148.739 111.984 148.393 111.946 148.067 111.835C147.742 111.723 147.445 111.542 147.198 111.303C146.951 111.063 146.76 110.773 146.639 110.451C146.517 110.13 146.469 109.786 146.497 109.443C146.497 103.148 146.497 96.8486 146.497 90.5458C146.481 90.2064 146.537 89.8675 146.66 89.5509C146.784 89.2342 146.972 88.9468 147.213 88.7071C147.455 88.4673 147.744 88.2806 148.062 88.1588C148.379 88.0371 148.719 87.983 149.059 88C149.39 88.0042 149.717 88.0773 150.017 88.2145C150.318 88.3517 150.587 88.55 150.807 88.7968C151.026 89.0436 151.192 89.3334 151.293 89.6476C151.394 89.9619 151.428 90.2938 151.393 90.622C151.404 93.7552 151.393 96.8885 151.393 99.9674Z" fill="#202225"/>
<path d="M161.185 100.098C161.185 103.188 161.185 106.267 161.185 109.345C161.185 111.053 160.324 111.978 158.786 111.989C158.443 112.014 158.099 111.963 157.778 111.84C157.458 111.716 157.168 111.523 156.932 111.274C156.695 111.025 156.516 110.727 156.409 110.401C156.302 110.075 156.268 109.729 156.311 109.389C156.311 103.137 156.311 96.8848 156.311 90.6328C156.286 90.2932 156.331 89.952 156.446 89.6311C156.56 89.3102 156.74 89.0165 156.974 88.769C157.209 88.5214 157.492 88.3254 157.807 88.1934C158.122 88.0614 158.46 87.9964 158.802 88.0025C159.143 88.0085 159.479 88.0856 159.789 88.2287C160.099 88.3718 160.375 88.5778 160.6 88.8336C160.826 89.0893 160.995 89.3892 161.098 89.714C161.2 90.0388 161.234 90.3813 161.196 90.7198C161.196 93.8531 161.185 96.9755 161.185 100.098Z" fill="#202225"/>
<path d="M171 100.229C171 103.209 171 106.201 171 109.193C171 111.032 170.171 111.967 168.601 111.989C167.031 112.011 166.104 111.043 166.093 109.269C166.093 103.112 166.093 96.9466 166.093 90.7743C166.051 90.4248 166.084 90.0704 166.19 89.7346C166.297 89.3989 166.473 89.0896 166.708 88.8272C166.943 88.5647 167.232 88.3553 167.554 88.2127C167.877 88.0701 168.226 87.9976 168.579 88.0001C170.04 88.0001 170.989 89.088 171 90.8287C171.011 93.9729 171 97.0953 171 100.229Z" fill="#202225"/>
<path d="M129.387 97.661C132.517 97.661 135.647 97.661 138.776 97.661C140.663 97.661 141.601 98.4769 141.601 100.022C141.601 101.567 140.641 102.394 138.787 102.394H120.01C118.156 102.394 117.207 101.588 117.207 100.033C117.207 98.4769 118.123 97.661 120.01 97.661C123.139 97.6501 126.269 97.661 129.387 97.661Z" fill="#202225"/>
<path d="M129.388 111.989H119.977C118.113 111.989 117.175 111.162 117.197 109.596C117.218 108.029 118.167 107.267 119.934 107.267H138.875C140.631 107.267 141.579 108.116 141.601 109.617C141.623 111.119 140.674 111.935 138.93 111.935C135.745 112 132.594 111.989 129.388 111.989Z" fill="#202225"/>
</g>
<defs>
<clipPath id="clip0_3087_35836">
<rect width="142" height="24" fill="white" transform="translate(29 88)"/>
</clipPath>
</defs>
</svg>
