<svg width="20" height="20" viewBox="0 0 20 20" fill="none" xmlns="http://www.w3.org/2000/svg">
<path d="M6.66602 3.33341V13.3334C6.66602 13.7754 6.84161 14.1994 7.15417 14.5119C7.46673 14.8245 7.89065 15.0001 8.33268 15.0001H14.9993C15.4414 15.0001 15.8653 14.8245 16.1779 14.5119C16.4904 14.1994 16.666 13.7754 16.666 13.3334V6.03508C16.666 5.81305 16.6216 5.59326 16.5354 5.38862C16.4493 5.18398 16.3231 4.99862 16.1643 4.84341L13.4018 2.14175C13.0905 1.8373 12.6723 1.6668 12.2368 1.66675H8.33268C7.89065 1.66675 7.46673 1.84234 7.15417 2.1549C6.84161 2.46746 6.66602 2.89139 6.66602 3.33341V3.33341Z" stroke="white" stroke-width="2" stroke-linecap="round" stroke-linejoin="round"/>
<path d="M13.333 15.0002V16.6668C13.333 17.1089 13.1574 17.5328 12.8449 17.8453C12.5323 18.1579 12.1084 18.3335 11.6663 18.3335H4.99967C4.55765 18.3335 4.13372 18.1579 3.82116 17.8453C3.5086 17.5328 3.33301 17.1089 3.33301 16.6668V7.50016C3.33301 7.05814 3.5086 6.63421 3.82116 6.32165C4.13372 6.00909 4.55765 5.8335 4.99967 5.8335H6.66634" stroke="white" stroke-width="2" stroke-linecap="round" stroke-linejoin="round"/>
</svg>
