<svg width="207" height="97" viewBox="0 0 207 97" fill="none" xmlns="http://www.w3.org/2000/svg">
<g clip-path="url(#clip0_3217_2512)">
<path d="M97.3962 41.8551L96.2402 51.2693C96.031 52.9185 95.7806 54.5367 95.4376 56.1103H81.5351L77.0896 56.5845L76.3762 60.5632C74.8943 69.0565 76.1704 77.1788 79.995 83.9782C70.9531 92.2483 58.7554 97 44.8324 97C30.9094 97 18.4201 91.8772 10.2083 82.5833C2.27437 73.5986 -1.22096 61.4668 0.380922 48.4485C3.70132 21.2918 27.685 0 54.9445 0C71.8552 0 86.5157 8.23909 93.1874 21.4842L93.8391 22.776L72.4658 34.2551L71.7832 32.9048C68.7749 26.9609 61.1394 23.1334 52.3513 23.1334C37.7182 23.1334 25.771 33.9871 23.9358 48.9398C23.0612 56.0382 24.6905 62.1368 28.6214 66.6068C32.8303 71.3757 39.3853 73.8838 47.5628 73.8838C57.5549 73.8838 65.3516 70.0048 69.828 62.9098H46.5681L49.1475 41.8551H97.3962V41.8551Z" fill="white"/>
<path d="M143.305 34.6399L138.263 62.123H150.21L150.09 62.8205C146.149 81.7072 128.137 96.7629 109.34 96.7629C99.9721 96.7629 91.7603 93.1107 86.2171 86.5036C80.5574 79.7488 78.3621 70.7641 80.036 61.2022L80.2589 59.955L81.535 59.8245H103.841L103.533 61.7245C102.984 64.8442 103.635 67.6203 105.399 69.7711C107.206 71.9666 109.892 73.1863 112.928 73.1863C115.964 73.1863 119.154 71.8945 121.884 69.5753C124.549 67.3042 126.937 61.989 127.499 59.8245C127.664 59.1854 134.233 21.6628 134.233 21.6628H112.489L116.787 0H161.317L155.136 34.6399H143.309H143.305Z" fill="white"/>
<path d="M203.446 58.4159H183.157L179.607 78.7353H159.448L162.998 58.4159H142.712L146.389 38.3473H166.548L170.225 18.0244H190.261L186.707 38.3473H206.997L203.446 58.4159V58.4159Z" fill="white"/>
</g>
<defs>
<clipPath id="clip0_3217_2512">
<rect width="207" height="97" fill="white"/>
</clipPath>
</defs>
</svg>
