<svg width="18" height="18" viewBox="0 0 18 18" fill="none" xmlns="http://www.w3.org/2000/svg">
<path d="M8.16699 13.167H9.83366V8.16699H8.16699V13.167ZM9.00033 6.50033C9.23644 6.50033 9.43449 6.42033 9.59449 6.26033C9.75394 6.10088 9.83366 5.9031 9.83366 5.66699C9.83366 5.43088 9.75394 5.23283 9.59449 5.07283C9.43449 4.91338 9.23644 4.83366 9.00033 4.83366C8.76421 4.83366 8.56644 4.91338 8.40699 5.07283C8.24699 5.23283 8.16699 5.43088 8.16699 5.66699C8.16699 5.9031 8.24699 6.10088 8.40699 6.26033C8.56644 6.42033 8.76421 6.50033 9.00033 6.50033ZM9.00033 17.3337C7.84755 17.3337 6.76421 17.1148 5.75033 16.677C4.73644 16.2398 3.85449 15.6462 3.10449 14.8962C2.35449 14.1462 1.76088 13.2642 1.32366 12.2503C0.885881 11.2364 0.666992 10.1531 0.666992 9.00033C0.666992 7.84755 0.885881 6.76421 1.32366 5.75033C1.76088 4.73644 2.35449 3.85449 3.10449 3.10449C3.85449 2.35449 4.73644 1.7606 5.75033 1.32283C6.76421 0.885603 7.84755 0.666992 9.00033 0.666992C10.1531 0.666992 11.2364 0.885603 12.2503 1.32283C13.2642 1.7606 14.1462 2.35449 14.8962 3.10449C15.6462 3.85449 16.2398 4.73644 16.677 5.75033C17.1148 6.76421 17.3337 7.84755 17.3337 9.00033C17.3337 10.1531 17.1148 11.2364 16.677 12.2503C16.2398 13.2642 15.6462 14.1462 14.8962 14.8962C14.1462 15.6462 13.2642 16.2398 12.2503 16.677C11.2364 17.1148 10.1531 17.3337 9.00033 17.3337ZM9.00033 15.667C10.8614 15.667 12.4378 15.0212 13.7295 13.7295C15.0212 12.4378 15.667 10.8614 15.667 9.00033C15.667 7.13921 15.0212 5.56283 13.7295 4.27116C12.4378 2.97949 10.8614 2.33366 9.00033 2.33366C7.13921 2.33366 5.56283 2.97949 4.27116 4.27116C2.97949 5.56283 2.33366 7.13921 2.33366 9.00033C2.33366 10.8614 2.97949 12.4378 4.27116 13.7295C5.56283 15.0212 7.13921 15.667 9.00033 15.667Z" fill="#8A939B"/>
</svg>
