<svg xmlns="http://www.w3.org/2000/svg" xmlns:xlink="http://www.w3.org/1999/xlink">

    <defs>
            <svg id="user" width="38" height="38" viewBox="0 0 38 38" fill="none">
            <path d="M6.5 30.9833C8.34167 29.6833 10.2649 28.6542 12.2698 27.8958C14.2733 27.1375 16.4667 26.7583 18.85 26.7583C21.2333 26.7583 23.4274 27.1375 25.4323 27.8958C27.4358 28.6542 29.3583 29.6833 31.2 30.9833C32.6806 29.5028 33.8816 27.7333 34.8032 25.675C35.7233 23.6167 36.1833 21.3417 36.1833 18.85C36.1833 14.0472 34.4955 9.95728 31.1198 6.58017C27.7427 3.2045 23.6528 1.51667 18.85 1.51667C14.0472 1.51667 9.958 3.2045 6.58233 6.58017C3.20522 9.95728 1.51667 14.0472 1.51667 18.85C1.51667 21.3417 1.97744 23.6167 2.899 25.675C3.81911 27.7333 5.01944 29.5028 6.5 30.9833ZM18.85 19.6083C17.1167 19.6083 15.6542 19.0125 14.4625 17.8208C13.2708 16.6292 12.675 15.1667 12.675 13.4333C12.675 11.7 13.2708 10.2375 14.4625 9.04583C15.6542 7.85417 17.1167 7.25833 18.85 7.25833C20.5833 7.25833 22.0458 7.85417 23.2375 9.04583C24.4292 10.2375 25.025 11.7 25.025 13.4333C25.025 15.1667 24.4292 16.6292 23.2375 17.8208C22.0458 19.0125 20.5833 19.6083 18.85 19.6083ZM18.85 37.7C16.2139 37.7 13.7497 37.2125 11.4573 36.2375C9.16356 35.2625 7.16806 33.9264 5.47083 32.2292C3.77361 30.5319 2.4375 28.5364 1.4625 26.2427C0.4875 23.9503 0 21.4861 0 18.85C0 16.2139 0.4875 13.7489 1.4625 11.4552C2.4375 9.16283 3.77361 7.16806 5.47083 5.47083C7.16806 3.77361 9.16356 2.4375 11.4573 1.4625C13.7497 0.4875 16.2139 0 18.85 0C21.4861 0 23.9511 0.4875 26.2448 1.4625C28.5372 2.4375 30.5319 3.77361 32.2292 5.47083C33.9264 7.16806 35.2625 9.16283 36.2375 11.4552C37.2125 13.7489 37.7 16.2139 37.7 18.85C37.7 21.4861 37.2125 23.9503 36.2375 26.2427C35.2625 28.5364 33.9264 30.5319 32.2292 32.2292C30.5319 33.9264 28.5372 35.2625 26.2448 36.2375C23.9511 37.2125 21.4861 37.7 18.85 37.7ZM18.85 36.1833C20.8722 36.1833 22.8858 35.8136 24.8907 35.074C26.8941 34.333 28.6 33.3306 30.0083 32.0667C28.6 30.9111 26.9483 29.9903 25.0532 29.3042C23.1566 28.6181 21.0889 28.275 18.85 28.275C16.6111 28.275 14.5347 28.6087 12.6208 29.276C10.7069 29.9448 9.06389 30.875 7.69167 32.0667C9.1 33.3306 10.8066 34.333 12.8115 35.074C14.8149 35.8136 16.8278 36.1833 18.85 36.1833ZM18.85 18.0917C20.15 18.0917 21.2514 17.6403 22.1542 16.7375C23.0569 15.8347 23.5083 14.7333 23.5083 13.4333C23.5083 12.1333 23.0569 11.0319 22.1542 10.1292C21.2514 9.22639 20.15 8.775 18.85 8.775C17.55 8.775 16.4486 9.22639 15.5458 10.1292C14.6431 11.0319 14.1917 12.1333 14.1917 13.4333C14.1917 14.7333 14.6431 15.8347 15.5458 16.7375C16.4486 17.6403 17.55 18.0917 18.85 18.0917Z" fill="#8A939B"/>
            </svg>

            <svg id="glass" width="16" height="16" viewBox="0 0 16 16" fill="none">
            <path fill-rule="evenodd" clip-rule="evenodd" d="M11.2438 10.1743L15.2788 14.2093C15.4206 14.3512 15.5003 14.5436 15.5002 14.7443C15.5001 14.9449 15.4204 15.1373 15.2784 15.2791C15.1365 15.421 14.9441 15.5006 14.7434 15.5005C14.5428 15.5005 14.3504 15.4207 14.2086 15.2788L10.1736 11.2438C8.96735 12.178 7.45053 12.6177 5.93166 12.4733C4.4128 12.3289 3.00599 11.6113 1.99743 10.4665C0.988869 9.32165 0.454313 7.83562 0.502509 6.31067C0.550705 4.78572 1.17803 3.3364 2.25687 2.25756C3.33571 1.17872 4.78503 0.551392 6.30998 0.503196C7.83493 0.455 9.32096 0.989556 10.4658 1.99812C11.6106 3.00668 12.3282 4.41349 12.4726 5.93235C12.617 7.45122 12.1773 8.96804 11.2431 10.1743H11.2438ZM6.50007 11C7.69354 11 8.83814 10.5259 9.68205 9.68199C10.526 8.83807 11.0001 7.69348 11.0001 6.50001C11.0001 5.30653 10.526 4.16194 9.68205 3.31803C8.83814 2.47411 7.69354 2.00001 6.50007 2.00001C5.3066 2.00001 4.162 2.47411 3.31809 3.31803C2.47418 4.16194 2.00007 5.30653 2.00007 6.50001C2.00007 7.69348 2.47418 8.83807 3.31809 9.68199C4.162 10.5259 5.3066 11 6.50007 11Z" fill="#8A939B"/>
            </svg>

            <svg id="close" width="10" height="10" viewBox="0 0 10 10" fill="none">
            <path d="M6.05745 5L9.28245 1.7825C9.42368 1.64127 9.50302 1.44973 9.50302 1.25C9.50302 1.05028 9.42368 0.85873 9.28245 0.717502C9.14123 0.576274 8.94968 0.496933 8.74995 0.496933C8.55023 0.496933 8.35868 0.576274 8.21745 0.717502L4.99995 3.9425L1.78245 0.717502C1.64123 0.576274 1.44968 0.496933 1.24995 0.496933C1.05023 0.496933 0.858682 0.576274 0.717454 0.717502C0.576226 0.85873 0.496885 1.05028 0.496885 1.25C0.496885 1.44973 0.576226 1.64127 0.717454 1.7825L3.94245 5L0.717454 8.2175C0.647158 8.28722 0.591362 8.37017 0.553286 8.46157C0.515209 8.55296 0.495605 8.65099 0.495605 8.75C0.495605 8.84901 0.515209 8.94704 0.553286 9.03843C0.591362 9.12983 0.647158 9.21278 0.717454 9.2825C0.787176 9.3528 0.870127 9.4086 0.961522 9.44667C1.05292 9.48475 1.15095 9.50435 1.24995 9.50435C1.34896 9.50435 1.44699 9.48475 1.53839 9.44667C1.62978 9.4086 1.71273 9.3528 1.78245 9.2825L4.99995 6.0575L8.21745 9.2825C8.28718 9.3528 8.37013 9.4086 8.46152 9.44667C8.55292 9.48475 8.65095 9.50435 8.74995 9.50435C8.84896 9.50435 8.94699 9.48475 9.03839 9.44667C9.12978 9.4086 9.21273 9.3528 9.28245 9.2825C9.35275 9.21278 9.40855 9.12983 9.44662 9.03843C9.4847 8.94704 9.5043 8.84901 9.5043 8.75C9.5043 8.65099 9.4847 8.55296 9.44662 8.46157C9.40855 8.37017 9.35275 8.28722 9.28245 8.2175L6.05745 5Z" fill="#8A939B"/>
            </svg>

    </defs>

</svg>