<svg xmlns="http://www.w3.org/2000/svg" xmlns:xlink="http://www.w3.org/1999/xlink">

    <defs>

            <svg id="user" width="38" height="38" viewBox="0 0 38 38" fill="none">
            <path d="M6.5 30.9833C8.34167 29.6833 10.2649 28.6542 12.2698 27.8958C14.2733 27.1375 16.4667 26.7583 18.85 26.7583C21.2333 26.7583 23.4274 27.1375 25.4323 27.8958C27.4358 28.6542 29.3583 29.6833 31.2 30.9833C32.6806 29.5028 33.8816 27.7333 34.8032 25.675C35.7233 23.6167 36.1833 21.3417 36.1833 18.85C36.1833 14.0472 34.4955 9.95728 31.1198 6.58017C27.7427 3.2045 23.6528 1.51667 18.85 1.51667C14.0472 1.51667 9.958 3.2045 6.58233 6.58017C3.20522 9.95728 1.51667 14.0472 1.51667 18.85C1.51667 21.3417 1.97744 23.6167 2.899 25.675C3.81911 27.7333 5.01944 29.5028 6.5 30.9833ZM18.85 19.6083C17.1167 19.6083 15.6542 19.0125 14.4625 17.8208C13.2708 16.6292 12.675 15.1667 12.675 13.4333C12.675 11.7 13.2708 10.2375 14.4625 9.04583C15.6542 7.85417 17.1167 7.25833 18.85 7.25833C20.5833 7.25833 22.0458 7.85417 23.2375 9.04583C24.4292 10.2375 25.025 11.7 25.025 13.4333C25.025 15.1667 24.4292 16.6292 23.2375 17.8208C22.0458 19.0125 20.5833 19.6083 18.85 19.6083ZM18.85 37.7C16.2139 37.7 13.7497 37.2125 11.4573 36.2375C9.16356 35.2625 7.16806 33.9264 5.47083 32.2292C3.77361 30.5319 2.4375 28.5364 1.4625 26.2427C0.4875 23.9503 0 21.4861 0 18.85C0 16.2139 0.4875 13.7489 1.4625 11.4552C2.4375 9.16283 3.77361 7.16806 5.47083 5.47083C7.16806 3.77361 9.16356 2.4375 11.4573 1.4625C13.7497 0.4875 16.2139 0 18.85 0C21.4861 0 23.9511 0.4875 26.2448 1.4625C28.5372 2.4375 30.5319 3.77361 32.2292 5.47083C33.9264 7.16806 35.2625 9.16283 36.2375 11.4552C37.2125 13.7489 37.7 16.2139 37.7 18.85C37.7 21.4861 37.2125 23.9503 36.2375 26.2427C35.2625 28.5364 33.9264 30.5319 32.2292 32.2292C30.5319 33.9264 28.5372 35.2625 26.2448 36.2375C23.9511 37.2125 21.4861 37.7 18.85 37.7ZM18.85 36.1833C20.8722 36.1833 22.8858 35.8136 24.8907 35.074C26.8941 34.333 28.6 33.3306 30.0083 32.0667C28.6 30.9111 26.9483 29.9903 25.0532 29.3042C23.1566 28.6181 21.0889 28.275 18.85 28.275C16.6111 28.275 14.5347 28.6087 12.6208 29.276C10.7069 29.9448 9.06389 30.875 7.69167 32.0667C9.1 33.3306 10.8066 34.333 12.8115 35.074C14.8149 35.8136 16.8278 36.1833 18.85 36.1833ZM18.85 18.0917C20.15 18.0917 21.2514 17.6403 22.1542 16.7375C23.0569 15.8347 23.5083 14.7333 23.5083 13.4333C23.5083 12.1333 23.0569 11.0319 22.1542 10.1292C21.2514 9.22639 20.15 8.775 18.85 8.775C17.55 8.775 16.4486 9.22639 15.5458 10.1292C14.6431 11.0319 14.1917 12.1333 14.1917 13.4333C14.1917 14.7333 14.6431 15.8347 15.5458 16.7375C16.4486 17.6403 17.55 18.0917 18.85 18.0917Z" fill="#8A939B"/>
            </svg>

            <svg id="search" width="16" height="16" viewBox="0 0 16 16" fill="none">
            <path fill-rule="evenodd" clip-rule="evenodd" d="M11.2438 10.1743L15.2788 14.2093C15.4206 14.3512 15.5003 14.5436 15.5002 14.7443C15.5001 14.9449 15.4204 15.1373 15.2784 15.2791C15.1365 15.421 14.9441 15.5006 14.7434 15.5005C14.5428 15.5005 14.3504 15.4207 14.2086 15.2788L10.1736 11.2438C8.96735 12.178 7.45053 12.6177 5.93166 12.4733C4.4128 12.3289 3.00599 11.6113 1.99743 10.4665C0.988869 9.32165 0.454313 7.83562 0.502509 6.31067C0.550705 4.78572 1.17803 3.3364 2.25687 2.25756C3.33571 1.17872 4.78503 0.551392 6.30998 0.503196C7.83493 0.455 9.32096 0.989556 10.4658 1.99812C11.6106 3.00668 12.3282 4.41349 12.4726 5.93235C12.617 7.45122 12.1773 8.96804 11.2431 10.1743H11.2438ZM6.50007 11C7.69354 11 8.83814 10.5259 9.68205 9.68199C10.526 8.83807 11.0001 7.69348 11.0001 6.50001C11.0001 5.30653 10.526 4.16194 9.68205 3.31803C8.83814 2.47411 7.69354 2.00001 6.50007 2.00001C5.3066 2.00001 4.162 2.47411 3.31809 3.31803C2.47418 4.16194 2.00007 5.30653 2.00007 6.50001C2.00007 7.69348 2.47418 8.83807 3.31809 9.68199C4.162 10.5259 5.3066 11 6.50007 11Z" fill="#8A939B"/>
            </svg>

            <svg id="close" width="10" height="10" viewBox="0 0 10 10" fill="none">
            <path d="M6.05745 5L9.28245 1.7825C9.42368 1.64127 9.50302 1.44973 9.50302 1.25C9.50302 1.05028 9.42368 0.85873 9.28245 0.717502C9.14123 0.576274 8.94968 0.496933 8.74995 0.496933C8.55023 0.496933 8.35868 0.576274 8.21745 0.717502L4.99995 3.9425L1.78245 0.717502C1.64123 0.576274 1.44968 0.496933 1.24995 0.496933C1.05023 0.496933 0.858682 0.576274 0.717454 0.717502C0.576226 0.85873 0.496885 1.05028 0.496885 1.25C0.496885 1.44973 0.576226 1.64127 0.717454 1.7825L3.94245 5L0.717454 8.2175C0.647158 8.28722 0.591362 8.37017 0.553286 8.46157C0.515209 8.55296 0.495605 8.65099 0.495605 8.75C0.495605 8.84901 0.515209 8.94704 0.553286 9.03843C0.591362 9.12983 0.647158 9.21278 0.717454 9.2825C0.787176 9.3528 0.870127 9.4086 0.961522 9.44667C1.05292 9.48475 1.15095 9.50435 1.24995 9.50435C1.34896 9.50435 1.44699 9.48475 1.53839 9.44667C1.62978 9.4086 1.71273 9.3528 1.78245 9.2825L4.99995 6.0575L8.21745 9.2825C8.28718 9.3528 8.37013 9.4086 8.46152 9.44667C8.55292 9.48475 8.65095 9.50435 8.74995 9.50435C8.84896 9.50435 8.94699 9.48475 9.03839 9.44667C9.12978 9.4086 9.21273 9.3528 9.28245 9.2825C9.35275 9.21278 9.40855 9.12983 9.44662 9.03843C9.4847 8.94704 9.5043 8.84901 9.5043 8.75C9.5043 8.65099 9.4847 8.55296 9.44662 8.46157C9.40855 8.37017 9.35275 8.28722 9.28245 8.2175L6.05745 5Z" fill="#8A939B"/>
            </svg>

            <svg id="academic-cap" xmlns="http://www.w3.org/2000/svg" fill="none" viewBox="0 0 24 24" stroke="currentColor">
            <path d="M12 14l9-5-9-5-9 5 9 5z"/>
            <path d="M12 14l6.16-3.422a12.083 12.083 0 01.665 6.479A11.952 11.952 0 0012 20.055a11.952 11.952 0 00-6.824-2.998 12.078 12.078 0 01.665-6.479L12 14z"/>
            <path stroke-linecap="round" stroke-linejoin="round" stroke-width="2" d="M12 14l9-5-9-5-9 5 9 5zm0 0l6.16-3.422a12.083 12.083 0 01.665 6.479A11.952 11.952 0 0012 20.055a11.952 11.952 0 00-6.824-2.998 12.078 12.078 0 01.665-6.479L12 14zm-4 6v-7.5l4-2.222"/>

            <svg id="arrow_down" width="13" height="8" viewBox="0 0 13 8" fill="none" xmlns="http://www.w3.org/2000/svg">
            <path d="M11.8242 1.00401C11.6551 0.832613 11.4256 0.736328 11.1864 0.736328C10.9472 0.736328 10.7178 0.832613 10.5486 1.00401L6.08293 5.52953L1.61727 1.00401C1.44712 0.83747 1.21923 0.745319 0.982693 0.747402C0.746151 0.749485 0.519879 0.845635 0.352612 1.01514C0.185346 1.18465 0.0904684 1.41396 0.0884132 1.65367C0.0863571 1.89338 0.177289 2.12432 0.341624 2.29675L5.44511 7.46865C5.61429 7.64004 5.84371 7.73633 6.08293 7.73633C6.32215 7.73633 6.55158 7.64004 6.72076 7.46865L11.8242 2.29675C11.9934 2.12531 12.0884 1.89281 12.0884 1.65038C12.0884 1.40795 11.9934 1.17545 11.8242 1.00401Z" fill="currentColor"/>
            </svg>

            <svg id="arrow_up" width="13" height="8" viewBox="0 0 13 8" fill="none" xmlns="http://www.w3.org/2000/svg">
            <path d="M1.17625 6.9955C1.34543 7.1669 1.57485 7.26318 1.81407 7.26318C2.05329 7.26318 2.28271 7.1669 2.45189 6.9955L6.91756 2.46998L11.3832 6.9955C11.5534 7.16204 11.7813 7.25419 12.0178 7.25211C12.2543 7.25003 12.4806 7.15388 12.6479 6.98437C12.8151 6.81486 12.91 6.58555 12.9121 6.34584C12.9141 6.10613 12.8232 5.87519 12.6589 5.70276L7.55538 0.530863C7.3862 0.359468 7.15677 0.263184 6.91756 0.263184C6.67834 0.263184 6.44891 0.359468 6.27973 0.530863L1.17625 5.70276C1.00712 5.87421 0.912109 6.10671 0.912109 6.34913C0.912109 6.59156 1.00712 6.82406 1.17625 6.9955Z" fill="currentColor"/>
            </svg>


            <svg id="arrow_left" width="7" height="12" viewBox="0 0 12 21" fill="none" xmlns="http://www.w3.org/2000/svg">
            <path d="M11.5411 0.462242C11.8349 0.758305 12 1.1598 12 1.57843C12 1.99707 11.8349 2.39856 11.5411 2.69462L3.78308 10.5095L11.5411 18.3244C11.8266 18.6222 11.9846 19.021 11.981 19.4349C11.9774 19.8489 11.8126 20.2449 11.522 20.5376C11.2314 20.8303 10.8383 20.9963 10.4274 20.9999C10.0165 21.0035 9.62058 20.8444 9.32499 20.5568L0.458879 11.6257C0.165059 11.3297 0 10.9282 0 10.5095C0 10.0909 0.165059 9.6894 0.458879 9.39334L9.32499 0.462242C9.6189 0.166269 10.0175 0 10.4331 0C10.8486 0 11.2472 0.166269 11.5411 0.462242Z" fill="currentColor"/>
            </svg>

            <svg id="arrow_right" width="12" height="21" viewBox="0 0 12 21" fill="none" xmlns="http://www.w3.org/2000/svg">
            <path d="M0.458879 0.462242C0.165059 0.758305 0 1.1598 0 1.57843C0 1.99707 0.165059 2.39856 0.458879 2.69462L8.21692 10.5095L0.458879 18.3244C0.173386 18.6222 0.0154122 19.021 0.0189831 19.4349C0.022554 19.8489 0.187384 20.2449 0.47797 20.5376C0.768557 20.8303 1.16165 20.9963 1.57259 20.9999C1.98352 21.0035 2.37942 20.8444 2.67501 20.5568L11.5411 11.6257C11.8349 11.3297 12 10.9282 12 10.5095C12 10.0909 11.8349 9.6894 11.5411 9.39334L2.67501 0.462242C2.3811 0.166269 1.98253 0 1.56695 0C1.15136 0 0.752787 0.166269 0.458879 0.462242Z" fill="#8A939B"/>
            </svg>

            <svg id="like" width="25" height="23" viewBox="0 0 25 23" fill="currentColor" xmlns="http://www.w3.org/2000/svg">
            <path d="M12.3333 22.0918L10.5933 20.5332C8.57325 18.7149 6.90325 17.1463 5.58325 15.8275C4.26325 14.5087 3.21325 13.3246 2.43325 12.2751C1.65325 11.2265 1.10845 10.2626 0.798852 9.38335C0.488452 8.50415 0.333252 7.60497 0.333252 6.6858C0.333252 4.80751 0.963252 3.23894 2.22325 1.98008C3.48325 0.721224 5.05325 0.0917969 6.93325 0.0917969C7.97325 0.0917969 8.96325 0.311597 9.90325 0.751197C10.8433 1.1908 11.6533 1.81023 12.3333 2.60951C13.0133 1.81023 13.8233 1.1908 14.7633 0.751197C15.7033 0.311597 16.6933 0.0917969 17.7333 0.0917969C19.6133 0.0917969 21.1833 0.721224 22.4433 1.98008C23.7033 3.23894 24.3333 4.80751 24.3333 6.6858C24.3333 7.60497 24.1785 8.50415 23.8689 9.38335C23.5585 10.2626 23.0133 11.2265 22.2333 12.2751C21.4533 13.3246 20.4033 14.5087 19.0833 15.8275C17.7633 17.1463 16.0933 18.7149 14.0733 20.5332L12.3333 22.0918ZM12.3333 18.8547C14.2533 17.1363 15.8333 15.6624 17.0733 14.4332C18.3133 13.2047 19.2933 12.136 20.0133 11.2273C20.7333 10.3177 21.2333 9.50804 21.5133 8.79828C21.7933 8.08933 21.9333 7.38517 21.9333 6.6858C21.9333 5.48689 21.5333 4.4878 20.7333 3.68853C19.9333 2.88925 18.9333 2.48962 17.7333 2.48962C16.7933 2.48962 15.9233 2.75418 15.1233 3.2833C14.3233 3.81321 13.7733 4.4878 13.4733 5.30706H11.1933C10.8933 4.4878 10.3433 3.81321 9.54325 3.2833C8.74325 2.75418 7.87325 2.48962 6.93325 2.48962C5.73325 2.48962 4.73325 2.88925 3.93325 3.68853C3.13325 4.4878 2.73325 5.48689 2.73325 6.6858C2.73325 7.38517 2.87325 8.08933 3.15325 8.79828C3.43325 9.50804 3.93325 10.3177 4.65325 11.2273C5.37325 12.136 6.35325 13.2047 7.59325 14.4332C8.83325 15.6624 10.4133 17.1363 12.3333 18.8547Z" fill="currentColor"/>
            </svg>

            <svg id="tune" width="18" height="18" viewBox="0 0 18 18" fill="none" xmlns="http://www.w3.org/2000/svg">
            <path d="M8 18V12H10V14H18V16H10V18H8ZM0 16V14H6V16H0ZM4 12V10H0V8H4V6H6V12H4ZM8 10V8H18V10H8ZM12 6V0H14V2H18V4H14V6H12ZM0 4V2H10V4H0Z" fill="currentColor"/>
            </svg>

            <svg id="update" width="22" height="22" viewBox="0 0 22 22" fill="none" xmlns="http://www.w3.org/2000/svg">
            <path d="M11 21.5C9.54167 21.5 8.17589 21.2231 6.90267 20.6693C5.62867 20.1148 4.52033 19.3658 3.57767 18.4223C2.63422 17.4797 1.88522 16.3713 1.33067 15.0973C0.776889 13.8241 0.5 12.4583 0.5 11C0.5 9.54167 0.776889 8.1755 1.33067 6.9015C1.88522 5.62828 2.63422 4.51994 3.57767 3.5765C4.52033 2.63383 5.62867 1.88522 6.90267 1.33067C8.17589 0.776889 9.54167 0.5 11 0.5C12.5944 0.5 14.1064 0.840278 15.536 1.52083C16.9648 2.20139 18.175 3.16389 19.1667 4.40833V1.66667H21.5V8.66667H14.5V6.33333H17.7083C16.9111 5.24444 15.9292 4.38889 14.7625 3.76667C13.5958 3.14444 12.3417 2.83333 11 2.83333C8.725 2.83333 6.79533 3.6255 5.211 5.20983C3.62589 6.79494 2.83333 8.725 2.83333 11C2.83333 13.275 3.62589 15.2047 5.211 16.789C6.79533 18.3741 8.725 19.1667 11 19.1667C13.0417 19.1667 14.8255 18.5056 16.3515 17.1833C17.8783 15.8611 18.7778 14.1889 19.05 12.1667H21.4417C21.15 14.8306 20.0078 17.0519 18.0152 18.8307C16.0217 20.6102 13.6833 21.5 11 21.5ZM14.2667 15.9L9.83333 11.4667V5.16667H12.1667V10.5333L15.9 14.2667L14.2667 15.9Z" fill="currentColor"/>
            </svg>
            
        </svg>

    </defs>

</svg>