<svg xmlns="http://www.w3.org/2000/svg" xmlns:xlink="http://www.w3.org/1999/xlink">

    <defs>
            <svg id="item-place" width="133" height="126" viewBox="0 0 133 126" fill="none" xmlns="http://www.w3.org/2000/svg">
<g clip-path="url(#clip0_1840_33989)">
<path d="M66.5382 24.1992C59.4493 24.1992 52.3348 24.1992 45.2459 24.1992C40.1276 24.1992 38.9759 23.1214 38.8736 18.0147C38.6944 8.67373 38.6944 8.67373 29.3535 8.67373H13.5378C10.6203 8.67373 7.90762 8.0835 7.88203 4.43951C7.85644 0.795519 10.39 0 13.4098 0C23.0323 0 32.4245 0 41.9446 0C45.7321 0 47.242 1.822 47.37 5.51731C47.7027 15.7821 47.7539 15.7821 58.1697 15.7821C65.9752 15.7821 73.8062 15.7821 81.6117 15.7821C84.8106 15.7821 85.8343 14.6786 85.7063 11.5479C85.1945 -1.2831 86.4229 0.0513238 97.4017 0.0513238H119.564C122.558 0.0513238 125.143 0.718534 125.092 4.36252C125.041 8.00652 122.405 8.64806 119.462 8.64806C112.347 8.64806 105.258 8.64806 98.1439 8.64806C95.3288 8.64806 93.998 9.3666 94.126 12.4717C94.689 26.1752 93.1791 24.0709 81.8932 24.1735C76.7748 24.2505 71.6565 24.1992 66.5382 24.1992Z" fill="#2A2D33"/>
<path d="M66.5383 110.347C61.2664 110.347 56.0201 110.347 50.7483 110.347C48.6242 110.347 47.1398 110.783 47.2934 113.401C47.4213 115.402 46.9607 117.481 50.1085 117.507C53.2562 117.532 55.2268 118.892 54.9197 122.152C54.6126 125.411 52.1302 126.078 49.3151 126.052C44.9134 126.052 40.486 126.052 36.0842 126.052C33.2947 126.052 31.2986 124.846 31.1706 121.895C31.111 121.316 31.1804 120.732 31.3737 120.183C31.567 119.635 31.8795 119.136 32.2885 118.724C32.6975 118.311 33.1928 117.995 33.7386 117.798C34.2844 117.6 34.867 117.527 35.4444 117.584C38.5154 117.584 38.8737 115.967 38.8225 113.529C38.8225 108.961 38.8225 104.394 38.8225 99.8514C38.8225 97.0542 39.36 94.5137 42.7125 94.2571C46.065 94.0004 47.319 96.156 47.2934 99.1072C47.2934 101.468 48.4194 101.93 50.4668 101.93C61.1129 101.93 71.759 101.93 82.4308 101.93C84.7596 101.93 85.7321 101.237 85.7321 98.7992C85.7321 96.3613 87.1396 94.0774 90.1851 94.2571C93.2305 94.4367 94.1262 96.6436 94.1518 99.3894C94.1518 104.394 94.1518 109.372 94.1518 114.35C94.1518 116.403 94.6892 117.532 96.9924 117.584C99.9099 117.584 102.111 119.072 101.778 122.306C101.445 125.539 98.9374 126.18 96.1223 126.155C91.695 126.155 87.2932 126.155 82.8914 126.155C80.1275 126.155 78.1314 124.949 78.0034 121.972C77.9466 121.391 78.0199 120.804 78.2179 120.254C78.416 119.705 78.7337 119.207 79.1481 118.796C79.5625 118.386 80.063 118.073 80.6132 117.881C81.1634 117.689 81.7493 117.623 82.3284 117.686C85.8089 117.686 85.6809 115.659 85.6553 113.221C85.6553 110.013 83.3777 110.655 81.4839 110.501C76.4935 110.347 71.6567 110.347 66.5383 110.347Z" fill="#2A2D33"/>
<path d="M66.538 62.6406C78.6172 62.6406 90.6965 62.6406 102.776 62.6406C108.841 62.6406 109.762 63.5645 109.762 69.4924C109.762 71.2117 109.762 72.9054 109.762 74.6247C109.794 75.164 109.715 75.7041 109.531 76.2119C109.348 76.7197 109.063 77.1847 108.694 77.5785C108.325 77.9723 107.88 78.2867 107.386 78.5024C106.892 78.7181 106.36 78.8307 105.821 78.8333C105.284 78.9245 104.734 78.8953 104.209 78.7476C103.685 78.5999 103.199 78.3374 102.788 77.9791C102.377 77.6208 102.05 77.1756 101.831 76.6754C101.612 76.1753 101.507 75.6327 101.522 75.0867C101.522 71.3657 99.5512 71.1347 96.6338 71.1347C76.604 71.1347 56.5657 71.1347 36.5189 71.1347C33.6526 71.1347 31.6053 71.3144 31.6309 75.061C31.6454 75.6078 31.5394 76.1511 31.3206 76.6522C31.1018 77.1532 30.7755 77.5998 30.365 77.96C29.9544 78.3202 29.4698 78.5852 28.9454 78.7361C28.4211 78.8871 27.8701 78.9203 27.3315 78.8333C26.7875 78.8408 26.2477 78.7368 25.7453 78.5276C25.2428 78.3184 24.7883 78.0084 24.4097 77.6167C24.031 77.225 23.7362 76.7598 23.5433 76.2497C23.3504 75.7396 23.2635 75.1954 23.288 74.6504V74.2142C22.4179 63.3078 23.0321 62.6406 34.0877 62.6406H66.538Z" fill="#2A2D33"/>
<path d="M15.6365 55.5062C11.9513 55.5062 8.24052 55.5062 4.55532 55.5062C1.76583 55.3778 0 54.0691 0 50.9897C0 47.9102 2.04734 47.1147 4.65769 47.1147C9.77602 47.1147 14.8944 47.1147 20.0127 47.1147C22.3415 47.1147 23.314 46.4475 23.2628 43.9583C23.1093 38.4153 23.1093 32.8467 23.2628 27.3037C23.2628 24.7375 22.316 24.0447 19.9871 24.173C17.6583 24.3013 14.8688 24.173 12.3096 24.173C9.75043 24.173 7.95901 23.0952 7.85665 20.1184C7.78282 19.5425 7.84076 18.9573 8.02607 18.4072C8.21138 17.8571 8.51921 17.3565 8.92618 16.9435C9.33316 16.5304 9.8286 16.2158 10.3749 16.0233C10.9212 15.8309 11.5041 15.7658 12.0793 15.8328C17.1976 15.7302 22.316 15.7302 27.4343 15.8328C30.4029 15.8328 31.5546 17.7832 31.7849 20.5803C32.092 24.0703 30.2494 28.4585 32.8085 30.8451C35.3677 33.2316 39.36 31.3583 42.7125 31.5379C45.4252 31.6919 47.1911 32.9237 47.1911 35.6182C47.1911 38.3127 45.5276 39.5701 42.7637 39.7241C39.2832 39.9294 34.8815 38.1587 32.527 40.5966C30.1726 43.0345 31.964 47.1404 31.7849 50.5278C31.6057 53.9151 30.0446 55.5318 26.6665 55.5318H15.6365V55.5062Z" fill="#2A2D33"/>
<path d="M117.056 55.5321H106.41C105.739 55.6089 105.06 55.5368 104.42 55.321C103.779 55.1052 103.195 54.7509 102.706 54.2833C102.218 53.8156 101.838 53.246 101.594 52.6148C101.349 51.9836 101.246 51.3063 101.292 50.6307C101.036 47.1407 102.802 42.7268 100.319 40.3659C97.8368 38.005 93.8189 39.827 90.4408 39.6987C87.7281 39.6987 85.9111 38.4156 85.8855 35.7211C85.8599 33.0266 87.7537 31.4869 90.6456 31.5126C92.9232 31.5126 95.2009 31.3586 97.453 31.5126C100.55 31.7692 101.573 30.3578 101.292 27.5093C101.279 27.3642 101.279 27.2182 101.292 27.0731C101.036 14.9863 101.292 15.6278 112.731 15.6792C115.572 15.6792 118.413 15.6792 121.253 15.6792C121.791 15.6513 122.329 15.7396 122.83 15.9382C123.332 16.1369 123.784 16.4411 124.158 16.8305C124.532 17.2198 124.818 17.6851 124.996 18.1948C125.175 18.7046 125.243 19.2469 125.194 19.7851C125.234 20.3248 125.16 20.8669 124.977 21.3759C124.794 21.885 124.506 22.3497 124.132 22.7396C123.757 23.1294 123.305 23.4358 122.805 23.6386C122.304 23.8414 121.767 23.9362 121.228 23.9166C118.389 24.0706 115.544 24.0706 112.706 23.9166C110.505 23.9166 109.711 24.6865 109.737 26.8934C109.737 32.4621 109.916 38.0307 109.737 43.5737C109.737 46.3452 110.837 46.9354 113.269 46.8584C118.105 46.7301 122.942 46.8584 127.753 46.8584C130.671 46.8584 132.872 47.6539 132.872 51.0413C132.872 54.4287 130.492 55.2498 127.753 55.2755C124.171 55.5578 120.613 55.5321 117.056 55.5321Z" fill="#2A2D33"/>
<path d="M15.6107 118.045H13.0515C10.4924 118.045 8.08675 117.327 7.9332 114.222C7.77965 111.116 9.72462 109.474 12.6933 109.577C16.2249 109.705 15.4572 107.344 15.6363 105.291C15.8666 102.725 14.5103 102.135 12.3094 102.212C10.1085 102.289 7.19104 102.212 4.63187 102.212C1.38173 102.34 -0.000223015 100.723 -0.000223015 97.5156C-0.000223015 92.6912 -0.000223015 87.8411 -0.000223015 83.0167C-0.103241 82.4127 -0.0648069 81.793 0.112043 81.2066C0.288894 80.6201 0.599316 80.0829 1.01879 79.6374C1.43826 79.1918 1.9553 78.8502 2.52905 78.6395C3.10281 78.4288 3.71757 78.3547 4.32477 78.4232C6.73039 78.4232 9.1616 78.4232 11.5672 78.4232C13.9728 78.4232 15.8922 79.7319 15.8922 82.5547C15.9619 83.0959 15.9078 83.646 15.7339 84.1631C15.56 84.6802 15.2709 85.1507 14.8885 85.5391C14.5062 85.9274 14.0407 86.2233 13.5273 86.4043C13.0139 86.5853 12.4661 86.6466 11.9255 86.5837C7.80524 86.2501 8.21471 88.7649 8.18912 91.4338C8.18912 94.8211 10.5436 94 12.3094 94C24.9005 94 23.6721 93.4097 23.6977 105.65V109.91C23.6721 118.045 23.4929 118.045 15.6107 118.045Z" fill="#2A2D33"/>
<path d="M133.077 90.6637C133.077 103.084 134.203 102.366 121.791 102.34C119.999 102.34 117.543 101.493 117.517 104.906C117.517 107.472 117.108 110.038 121.202 109.807C121.767 109.773 122.333 109.866 122.857 110.081C123.381 110.296 123.85 110.626 124.228 111.048C124.607 111.47 124.886 111.972 125.045 112.517C125.203 113.062 125.237 113.636 125.143 114.196C124.964 116.762 123.25 117.84 120.87 118.071H120.46C108.33 118.353 109.149 118.071 109.302 107.806C109.302 104.675 109.302 101.544 109.302 98.4136C109.21 97.8071 109.262 97.1875 109.454 96.6049C109.645 96.0223 109.971 95.4933 110.405 95.0608C110.839 94.6283 111.368 94.3044 111.95 94.1156C112.533 93.9268 113.151 93.8783 113.755 93.9741C116.57 93.9741 119.411 93.8458 122.252 93.9741C125.092 94.1024 124.811 92.383 124.811 90.6124C124.811 88.8417 125.63 86.6091 122.507 86.6604C119.385 86.7118 117.005 85.8392 117.21 82.1953C117.415 78.5513 120.281 78.346 123.096 78.3203C133.077 78.3203 133.077 78.2947 133.077 88.0975V90.6637Z" fill="#2A2D33"/>
<path d="M66.2309 86.7121C63.8253 86.7121 61.4196 86.7121 59.014 86.7121C58.4447 86.7825 57.8669 86.7249 57.3225 86.5436C56.7781 86.3622 56.2809 86.0616 55.8668 85.6636C55.4526 85.2655 55.1321 84.78 54.9284 84.2423C54.7247 83.7046 54.6429 83.1282 54.689 82.5548C54.6416 82.0149 54.7132 81.4712 54.8987 80.9621C55.0842 80.4531 55.3791 79.9912 55.7625 79.6092C56.1459 79.2271 56.6084 78.9344 57.1173 78.7516C57.6261 78.5688 58.1688 78.5005 58.7069 78.5516C63.8253 78.5516 69.1739 78.5516 74.4202 78.5516C74.9611 78.5128 75.5038 78.5951 76.0091 78.7925C76.5144 78.9898 76.9696 79.2973 77.3419 79.6927C77.7141 80.0881 77.9941 80.5615 78.1616 81.0787C78.329 81.5959 78.3798 82.1439 78.3102 82.6831C78.3457 83.2269 78.2632 83.772 78.0686 84.2808C77.8739 84.7896 77.5716 85.2501 77.1824 85.6306C76.7933 86.011 76.3266 86.3024 75.8144 86.4847C75.3022 86.6669 74.7567 86.7357 74.2155 86.6864C71.6563 86.7634 68.918 86.6864 66.2309 86.7121Z" fill="#2A2D33"/>
<path d="M58.8608 47.5258C58.3234 47.581 57.7804 47.5203 57.2683 47.3477C56.7563 47.1751 56.2869 46.8947 55.8918 46.5253C55.4968 46.1558 55.185 45.7059 54.9776 45.2057C54.7702 44.7055 54.6719 44.1666 54.6894 43.6252C54.6072 43.0927 54.6421 42.5485 54.7918 42.0309C54.9414 41.5134 55.2022 41.0349 55.5557 40.629C55.9093 40.2231 56.3471 39.8997 56.8384 39.6814C57.3298 39.4631 57.8628 39.3553 58.4002 39.3653C58.9655 39.267 59.5458 39.3014 60.0956 39.4659C60.6455 39.6304 61.1497 39.9205 61.5688 40.3134C61.988 40.7063 62.3105 41.1914 62.5112 41.7304C62.7118 42.2694 62.785 42.8477 62.7251 43.4199C62.7725 43.9514 62.7068 44.4869 62.5325 44.991C62.3582 45.4951 62.0792 45.9565 61.714 46.3445C61.3488 46.7326 60.9056 47.0385 60.4138 47.2421C59.922 47.4458 59.3927 47.5425 58.8608 47.5258Z" fill="#2A2D33"/>
<path d="M78.3616 43.3696C78.4057 43.9068 78.3352 44.4473 78.1549 44.9552C77.9745 45.463 77.6885 45.9265 77.3157 46.3149C76.9428 46.7033 76.4919 47.0077 75.9927 47.2078C75.4935 47.4079 74.9575 47.4991 74.4204 47.4755C73.8853 47.5483 73.3406 47.5015 72.8256 47.3384C72.3106 47.1752 71.838 46.8998 71.4417 46.5318C71.0454 46.1639 70.7352 45.7125 70.5334 45.2101C70.3316 44.7078 70.2432 44.1668 70.2746 43.6262C70.1847 43.0574 70.2267 42.4754 70.3975 41.9256C70.5683 41.3757 70.8632 40.8728 71.2592 40.4557C71.6553 40.0387 72.142 39.7188 72.6813 39.521C73.2207 39.3231 73.7983 39.2526 74.3693 39.315C76.9284 39.3663 78.1056 41.06 78.3616 43.3696Z" fill="#2A2D33"/>
<path d="M12.1557 39.6996C9.31504 39.4943 7.8819 38.2112 7.85631 35.6707C7.7954 35.1377 7.85179 34.5978 8.02148 34.089C8.19118 33.5802 8.47007 33.1149 8.8385 32.7259C9.20693 32.3369 9.65594 32.0336 10.1539 31.8375C10.6519 31.6413 11.1867 31.557 11.7207 31.5905C12.2854 31.5133 12.8604 31.5686 13.4002 31.7519C13.9401 31.9352 14.4302 32.2416 14.832 32.647C15.2338 33.0524 15.5364 33.5457 15.7159 34.0882C15.8954 34.6307 15.9469 35.2075 15.8665 35.7734C15.8944 36.279 15.819 36.785 15.645 37.2604C15.4711 37.7359 15.2022 38.1707 14.8548 38.5382C14.5074 38.9058 14.0888 39.1984 13.6247 39.3981C13.1606 39.5978 12.6607 39.7004 12.1557 39.6996Z" fill="#2A2D33"/>
<path d="M120.997 39.6738C120.469 39.7052 119.941 39.6223 119.448 39.4307C118.955 39.2392 118.509 38.9435 118.14 38.5638C117.77 38.184 117.487 37.7291 117.309 37.2299C117.131 36.7306 117.062 36.1988 117.107 35.6705C117.063 35.1161 117.134 34.5586 117.315 34.0329C117.496 33.5073 117.784 33.025 118.16 32.6163C118.536 32.2077 118.993 31.8815 119.501 31.6585C120.009 31.4355 120.558 31.3203 121.112 31.3203C121.667 31.3203 122.215 31.4355 122.724 31.6585C123.232 31.8815 123.688 32.2077 124.064 32.6163C124.441 33.025 124.728 33.5073 124.91 34.0329C125.091 34.5586 125.162 35.1161 125.117 35.6705C125.163 36.2189 125.086 36.7705 124.893 37.2855C124.7 37.8006 124.395 38.2664 124.001 38.6492C123.607 39.0321 123.133 39.3226 122.614 39.4998C122.094 39.6769 121.542 39.7364 120.997 39.6738Z" fill="#2A2D33"/>
</g>
<defs>
<clipPath id="clip0_1840_33989">
<rect width="133" height="126" fill="white"/>
</clipPath>
</defs>
</svg>


            <svg id="game-place" width="142" height="108" viewBox="0 0 142 108" fill="none" xmlns="http://www.w3.org/2000/svg">
<g clip-path="url(#clip0_1840_34016)">
<path d="M29.2223 33.1115C34.4445 33.1115 39.6945 33.1115 44.9167 33.1115C48.5556 33.1115 50.4723 34.6016 50.4723 38.1887C50.4723 48.7293 50.4723 59.2975 50.4723 69.8382C50.4723 73.4529 48.5 74.9705 44.9167 74.9429C34.4538 74.9429 23.9815 74.9429 13.5 74.9429C12.762 75.0594 12.0065 74.9992 11.2966 74.7672C10.5866 74.5353 9.94269 74.1383 9.41832 73.6093C8.89395 73.0803 8.50429 72.4346 8.28177 71.7259C8.05924 71.0172 8.01028 70.2659 8.13894 69.5346C8.13894 59.1596 8.13894 48.7661 8.13894 38.3543C8.13894 34.4912 10.1389 32.8356 13.9723 33.0288C19.0556 33.1115 24.1389 33.1115 29.2223 33.1115ZM29.5278 41.7758C26.5834 41.7758 23.6389 41.9138 20.7223 41.7758C17.8056 41.6379 17.1667 42.6864 17.2223 45.225C17.2223 51.0471 17.2223 56.8693 17.2223 62.6915C17.2223 65.0921 17.8056 66.3614 20.6112 66.2786C26.4723 66.1131 32.3334 66.2786 38.1945 66.2786C40.6112 66.2786 41.4723 65.368 41.4445 63.0502C41.4445 57.6971 41.1389 52.3164 41.4445 46.9633C41.75 42.576 40 41.2791 35.8889 41.7758C33.7692 41.8774 31.6454 41.859 29.5278 41.7206V41.7758Z" fill="#2A2D33"/>
<path d="M112.806 33.1125C117.889 33.1125 122.972 33.1125 128.028 33.1125C131.889 33.1125 133.861 34.6026 133.889 38.438C133.889 48.8499 133.889 59.2525 133.889 69.646C134 70.3868 133.931 71.1433 133.687 71.852C133.443 72.5608 133.032 73.2013 132.488 73.72C131.944 74.2387 131.283 74.6205 130.561 74.8334C129.838 75.0463 129.074 75.0842 128.333 74.9439C117.722 74.9439 107.083 74.9439 96.4723 74.9439C95.7757 75.0413 95.0659 74.9761 94.3992 74.7536C93.7324 74.531 93.127 74.1572 92.631 73.6618C92.1349 73.1664 91.7619 72.563 91.5415 71.8995C91.3211 71.2359 91.2593 70.5305 91.3611 69.8391C91.3611 59.2985 91.3611 48.7303 91.3611 38.1897C91.3611 34.575 93.3611 33.0297 96.9167 33.1125C102.333 33.1125 107.556 33.1125 112.806 33.1125ZM100.611 53.8351C100.611 56.8979 100.611 59.9884 100.611 63.0512C100.611 65.369 101.444 66.3072 103.861 66.252C109.722 66.252 115.583 66.0865 121.444 66.252C124.222 66.252 124.889 65.0655 124.806 62.6649C124.806 59.7676 124.806 56.8427 124.806 53.9178C124.806 41.7768 124.806 41.7768 112.5 41.7768C100.194 41.7768 100.583 41.7216 100.611 53.7799V53.8351Z" fill="#2A2D33"/>
<path d="M71.1665 49.668C71.7893 49.6747 72.4037 49.8123 72.9692 50.0716C73.5348 50.3309 74.0387 50.7061 74.4479 51.1725C74.8571 51.639 75.1624 52.1861 75.3437 52.7781C75.525 53.37 75.5782 53.9933 75.4998 54.6072C75.4998 57.2009 76.5276 58.1115 79.0832 57.9735C79.6639 57.8781 80.2588 57.9131 80.8241 58.0757C81.3895 58.2384 81.9111 58.5247 82.3506 58.9137C82.7901 59.3026 83.1364 59.7844 83.3641 60.3236C83.5918 60.8628 83.6951 61.4457 83.6665 62.0297C83.7581 62.6488 83.7012 63.2805 83.5005 63.8736C83.2998 64.4666 82.9609 65.0042 82.5115 65.4426C82.0621 65.8809 81.5148 66.2077 80.9143 66.3962C80.3137 66.5847 79.6768 66.6297 79.0554 66.5274C75.9443 66.3343 75.4998 67.9071 75.5554 70.4181C75.5554 75.3297 75.5554 80.2137 75.5554 85.1253C75.5554 88.2433 75.0832 91.251 71.0832 91.3338C67.0832 91.4166 66.4721 88.2985 66.4443 85.2633C66.4443 80.2137 66.4443 75.1641 66.4443 70.1146C66.4443 67.7415 65.9443 66.3067 63.1387 66.5274C62.5204 66.6459 61.8829 66.6196 61.2766 66.4508C60.6702 66.282 60.1118 65.9753 59.6455 65.5549C59.1792 65.1346 58.8179 64.6122 58.5901 64.029C58.3623 63.4459 58.2743 62.8181 58.3332 62.1953C58.2906 61.5722 58.3934 60.9477 58.6337 60.3706C58.8739 59.7935 59.2451 59.2792 59.7182 58.8679C60.1914 58.4567 60.7538 58.1595 61.3615 57.9996C61.9693 57.8397 62.606 57.8213 63.2221 57.9459C65.6387 58.1115 66.4721 57.0906 66.4998 54.7727C66.6665 51.8202 67.8054 49.668 71.1665 49.668Z" fill="#2A2D33"/>
<path d="M29.3053 25.165C24.0553 25.165 18.8331 25.165 13.5831 25.165C12.8458 25.3161 12.0827 25.2878 11.3589 25.0824C10.635 24.8771 9.97191 24.5009 9.42614 23.9858C8.88036 23.4708 8.46812 22.8322 8.22459 22.1247C7.98105 21.4171 7.91345 20.6615 8.02755 19.9223C8.02755 15.0107 8.02755 10.1267 8.02755 5.24272C8.33311 2.37302 9.24977 0 12.6387 0C16.0276 0 16.9998 2.29024 17.1942 5.18753C17.1942 5.93255 17.1942 6.70516 17.1942 7.47777C17.3331 16.556 17.3331 16.556 26.6109 16.556C32.7776 16.556 38.8887 16.556 45.0831 16.556C48.1942 16.556 50.3609 17.7701 50.3609 20.9433C50.3609 24.1165 48.0553 25.2202 44.9998 25.1926C39.7776 25.1099 34.5276 25.165 29.3053 25.165Z" fill="#2A2D33"/>
<path d="M112.667 25.1655C107.444 25.1655 102.222 25.1655 96.9721 25.1655C93.8609 25.2207 91.6665 24.0066 91.6665 20.8334C91.6665 17.6602 93.8887 16.5564 96.9721 16.5564C104.667 16.5564 112.361 16.5564 120.055 16.5564C123.583 16.5564 125.194 15.7562 124.805 12.0311C124.676 9.58328 124.741 7.12904 125 4.69134C125 1.93202 126.333 0.000489604 129.417 0.000489604C130.004 -0.0367615 130.592 0.0516414 131.142 0.259724C131.692 0.467806 132.19 0.79072 132.604 1.20664C133.017 1.62256 133.336 2.12179 133.539 2.6706C133.741 3.21942 133.823 3.80501 133.778 4.38782C133.944 9.90647 133.944 15.4251 133.778 20.9438C133.778 23.7031 131.805 25.2483 128.833 25.2207L112.667 25.1655Z" fill="#2A2D33"/>
<path d="M67.2219 31.071C67.2219 34.2718 67.2219 37.5002 67.2219 40.7011C67.2219 43.9019 65.833 45.8886 62.6108 45.861C59.3885 45.8334 58.2496 43.7363 58.1941 40.9494C58.1941 34.3822 58.1941 27.7874 58.1941 21.2202C58.1211 20.5999 58.1885 19.9712 58.3913 19.38C58.5942 18.7888 58.9274 18.2501 59.3666 17.8032C59.8059 17.3563 60.34 17.0125 60.9301 16.7969C61.5202 16.5813 62.1514 16.4993 62.7774 16.557C65.9163 16.557 67.0552 18.7092 67.1663 21.4134C67.3052 24.6142 67.1941 27.8426 67.2219 31.071Z" fill="#2A2D33"/>
<path d="M83.8608 31.4289C83.8608 34.6573 83.8608 37.8582 83.8608 41.059C83.8608 44.2598 82.3053 45.8602 79.3608 45.8602C78.7422 45.8687 78.1289 45.7455 77.5621 45.499C76.9954 45.2524 76.4884 44.8881 76.0752 44.4306C75.662 43.9731 75.3523 43.4331 75.1668 42.8467C74.9813 42.2604 74.9243 41.6414 74.9997 41.0314C74.9997 34.4642 74.8608 27.8694 74.9997 21.3022C74.9278 20.6969 74.9878 20.0833 75.1757 19.503C75.3635 18.9228 75.6749 18.3895 76.0885 17.9393C76.5022 17.4891 77.0085 17.1326 77.5731 16.8939C78.1377 16.6553 78.7474 16.5401 79.3608 16.5562C82.4997 16.5562 83.6942 18.6257 83.8331 21.3298C83.9719 24.8341 83.8608 28.0626 83.8608 31.4289Z" fill="#2A2D33"/>
<path d="M33.0555 99.6673C30.6667 99.281 27.0278 100.937 25.6111 97.4599C24.1121 93.4263 24.1121 88.9937 25.6111 84.9601C26.25 82.9734 28.2222 82.5043 30.2222 82.8354C31.2207 83.0042 32.1274 83.5172 32.7828 84.2843C33.4381 85.0514 33.8003 86.0235 33.8055 87.0296C34.0278 88.9887 33.8055 91.0858 36.8611 90.9478C39.9167 90.8099 42.1111 92.2723 42 95.4456C41.8889 98.6188 39.2222 99.8329 36.1667 99.6673H33.0555Z" fill="#2A2D33"/>
<path d="M108.333 99.6664H106.027C102.944 99.8595 100.194 99.1421 99.9997 95.6102C99.8053 92.0782 102.222 90.8089 105.555 91.0021C108.083 91.1676 108.111 89.5396 108.333 87.7461C108.333 84.8212 109.555 82.7793 112.916 82.7793C116.278 82.7793 117.083 85.3731 117.222 88.2979C117.222 89.2361 117.222 90.1467 117.222 91.0573C117.25 99.3353 116.916 99.6664 108.333 99.6664Z" fill="#2A2D33"/>
<path d="M57.9165 107.945C55.5554 107.586 51.861 109.187 50.5554 105.599C49.0271 101.562 49.0271 97.1099 50.5554 93.0721C50.9614 92.2259 51.6693 91.5596 52.5419 91.2027C53.4146 90.8458 54.3895 90.8237 55.2776 91.1406C56.2822 91.3328 57.1823 91.8808 57.8108 92.6827C58.4392 93.4846 58.7532 94.4858 58.6943 95.5004C58.6943 97.9837 59.1943 99.5842 62.2776 99.3358C62.8974 99.2284 63.534 99.2688 64.135 99.4537C64.736 99.6385 65.2842 99.9625 65.7345 100.399C66.1847 100.836 66.5242 101.372 66.7248 101.964C66.9255 102.557 66.9817 103.188 66.8888 103.806C66.8888 106.758 64.7777 108 61.861 107.945H57.9165Z" fill="#2A2D33"/>
<path d="M84.611 107.89C82.0833 107.89 80.5277 107.89 79.0555 107.89C78.5063 107.899 77.9613 107.795 77.4543 107.585C76.9474 107.375 76.4894 107.063 76.1089 106.67C75.7285 106.276 75.4336 105.809 75.2428 105.298C75.052 104.786 74.9694 104.241 74.9999 103.696C74.905 103.152 74.933 102.593 75.082 102.061C75.2311 101.529 75.4973 101.037 75.8616 100.619C76.2258 100.202 76.6789 99.8705 77.1881 99.6486C77.6973 99.4267 78.2497 99.32 78.8055 99.3363C82.3333 99.5295 83.2499 98.067 83.3333 94.8662C83.3421 94.3281 83.4632 93.7976 83.689 93.3084C83.9148 92.8191 84.2403 92.3818 84.645 92.0239C85.0496 91.666 85.5246 91.3954 86.04 91.2292C86.5553 91.063 87.0997 91.0048 87.6388 91.0583C88.2204 91.0108 88.8055 91.0867 89.3552 91.2812C89.9049 91.4756 90.4066 91.7841 90.827 92.1861C91.2475 92.588 91.5769 93.0743 91.7935 93.6125C92.0101 94.1507 92.1089 94.7286 92.0833 95.3077C92.3629 98.06 92.3629 100.833 92.0833 103.586C91.6666 109.104 87.111 107.752 84.611 107.89Z" fill="#2A2D33"/>
<path d="M7.74967 91.3897C4.9719 91.2241 0.194119 92.4383 0.0830078 87.2507C0.0830078 81.7321 4.80523 82.891 8.41634 82.7254C9.77745 82.7254 11.1941 82.7254 12.5552 82.7254C13.1347 82.6622 13.721 82.7229 14.2749 82.9036C14.8287 83.0842 15.3372 83.3805 15.7661 83.7727C16.1951 84.1648 16.5345 84.6436 16.7617 85.1769C16.9888 85.7101 17.0984 86.2856 17.083 86.8644C17.083 89.7893 15.4163 91.3069 12.4719 91.3621L7.74967 91.3897Z" fill="#2A2D33"/>
<path d="M133.722 91.3346C132.028 91.3346 130.333 91.3346 128.666 91.3346C127.657 91.172 126.739 90.6579 126.077 89.8844C125.414 89.1109 125.05 88.1285 125.05 87.1128C125.05 86.0972 125.414 85.1148 126.077 84.3413C126.739 83.5678 127.657 83.0537 128.666 82.8911C131.444 82.6703 134.222 82.8911 137 82.8911C139.778 82.8911 141.916 84.1052 142.028 87.0025C142.139 89.8998 140.083 91.6105 136.972 91.5554H133.722V91.3346Z" fill="#2A2D33"/>
<path d="M9.24985 99.3359C12.2221 99.529 17.0554 98.2597 16.9165 103.861C16.9165 109.021 12.1665 107.862 8.77763 108C7.38874 108 5.99985 108 4.63874 108C4.01276 108.081 3.37654 108.018 2.77876 107.816C2.18098 107.615 1.63747 107.281 1.1898 106.839C0.74214 106.397 0.402183 105.859 0.195936 105.266C-0.0103112 104.674 -0.0773827 104.042 -0.000148328 103.42C-0.008002 102.843 0.108111 102.271 0.340439 101.742C0.572767 101.213 0.915965 100.74 1.34712 100.354C1.77828 99.967 2.28748 99.6763 2.84073 99.5008C3.39397 99.3253 3.97854 99.2691 4.55541 99.3359H9.24985Z" fill="#2A2D33"/>
<path d="M134.611 99.3367C137.139 99.3367 141.805 98.2605 141.917 103.448C142.028 108.636 137.222 107.835 133.583 107.973C132.055 107.973 130.528 107.973 129 107.973C127.858 107.973 126.763 107.523 125.955 106.721C125.148 105.919 124.694 104.831 124.694 103.696C124.694 102.562 125.148 101.474 125.955 100.672C126.763 99.8701 127.858 99.4194 129 99.4194C130.694 99.3367 132.222 99.3367 134.611 99.3367Z" fill="#2A2D33"/>
<path d="M33.7775 53.9175C33.4164 56.5113 32.1664 58.1945 29.3608 58.2221C28.7782 58.2814 28.1896 58.2119 27.6372 58.0187C27.0847 57.8256 26.5822 57.5135 26.1654 57.1047C25.7486 56.696 25.428 56.2008 25.2265 55.6546C25.0249 55.1083 24.9475 54.5246 24.9997 53.9451C24.9481 53.3682 25.0251 52.7871 25.225 52.2431C25.425 51.699 25.743 51.2054 26.1566 50.7971C26.5702 50.3889 27.0692 50.0762 27.6182 49.881C28.1671 49.6859 28.7526 49.6133 29.333 49.6682C32.1664 49.6682 33.333 51.379 33.7775 53.9175Z" fill="#2A2D33"/>
<path d="M117.111 53.8618C116.778 56.4555 115.556 58.1663 112.75 58.2215C112.168 58.2883 111.579 58.2265 111.024 58.0404C110.469 57.8543 109.962 57.5485 109.54 57.145C109.118 56.7416 108.791 56.2503 108.582 55.7066C108.373 55.1628 108.289 54.5799 108.333 53.9997C108.274 53.4235 108.344 52.8414 108.537 52.2948C108.73 51.7483 109.041 51.2505 109.449 50.837C109.858 50.4236 110.353 50.1044 110.899 49.9023C111.446 49.7002 112.03 49.6201 112.611 49.6676C115.445 49.6676 116.667 51.3232 117.111 53.8618Z" fill="#2A2D33"/>
</g>
<defs>
<clipPath id="clip0_1840_34016">
<rect width="142" height="108" fill="white"/>
</clipPath>
</defs>
</svg>


            <svg id="avatar-place" width="126" height="126" viewBox="0 0 126 126" fill="none" xmlns="http://www.w3.org/2000/svg">
<g clip-path="url(#clip0_1840_34005)">
<path d="M52.0687 30.1111C52.0687 36.1723 52.0687 42.2335 52.0687 48.2705C52.0687 50.9374 53.0119 51.8587 55.5996 51.786C60.4365 51.6405 65.2733 51.592 70.1102 51.786C73.1574 51.9314 74.0522 50.7677 74.0038 47.8098C74.0038 36.2451 74.0038 24.6561 74.0038 13.0913C74.0038 10.2062 74.1731 7.36956 78.0184 7.49079C81.501 7.61201 81.7912 10.2547 81.767 12.9943C81.767 17.4311 81.767 21.8922 81.767 26.329C81.767 28.5595 82.42 29.6505 84.7175 29.3838C85.1286 29.3838 85.5397 29.3838 85.9267 29.3838C89.119 29.1414 93.182 30.7173 95.286 28.6807C97.39 26.6441 95.8664 22.8135 95.9873 19.7586C96.1083 16.7038 96.8822 14.9097 100.002 14.9097C103.122 14.9097 103.847 17.1644 104.065 19.7586C104.283 22.3528 102.662 26.6926 104.936 28.6565C107.209 30.6203 111.127 29.1414 114.295 29.3353C116.254 29.4565 118.092 29.5293 118.116 26.6199C118.14 23.7105 118.116 22.1104 114.585 22.3528C114.073 22.414 113.553 22.3562 113.067 22.1838C112.58 22.0114 112.14 21.7291 111.78 21.3587C111.42 20.9883 111.15 20.5398 110.99 20.0479C110.831 19.5561 110.787 19.034 110.861 18.5222C110.827 18.0211 110.902 17.5187 111.081 17.0496C111.26 16.5806 111.539 16.1562 111.898 15.8057C112.257 15.4552 112.687 15.1871 113.159 15.0198C113.632 14.8526 114.135 14.7902 114.633 14.8369C117.439 15.0067 118.019 13.7217 118.019 11.2487C118.019 8.77576 117.294 7.63626 114.585 7.68475C114.04 7.73918 113.489 7.66562 112.977 7.46989C112.465 7.27416 112.006 6.96164 111.635 6.55706C111.264 6.15248 110.992 5.66694 110.841 5.13888C110.69 4.61083 110.664 4.05474 110.764 3.51465C110.933 1.11442 112.529 -0.000841949 114.899 -0.000841949C126.314 -0.000841949 126.097 -0.970631 125.976 10.3274C125.976 17.4554 125.976 24.5833 125.976 31.7355C125.976 36.2451 124.815 37.4331 120.22 37.4331C108.66 37.4331 97.124 37.4331 85.5639 37.4331C82.6618 37.4331 81.4526 38.1362 81.6219 41.2637C81.8879 45.7005 81.6219 50.1616 81.6219 54.5984C81.6219 57.9441 80.2192 59.6655 76.785 59.4473C76.6563 59.4352 76.5268 59.4352 76.3981 59.4473C67.0146 59.6413 67.0146 59.6413 67.0146 68.9755C67.0146 71.8121 67.0146 74.6245 67.0146 77.4612C67.0575 78.0143 66.9859 78.5704 66.8042 79.0945C66.6225 79.6185 66.3347 80.0993 65.9589 80.5066C65.583 80.9138 65.1272 81.2387 64.6201 81.461C64.113 81.6832 63.5655 81.7979 63.0121 81.7979C62.4587 81.7979 61.9112 81.6832 61.4041 81.461C60.897 81.2387 60.4412 80.9138 60.0653 80.5066C59.6895 80.0993 59.4017 79.6185 59.22 79.0945C59.0383 78.5704 58.9667 78.0143 59.0096 77.4612C59.0096 72.6122 58.8403 67.7633 59.0096 62.9143C59.0096 60.2959 58.2357 59.2291 55.5754 59.4715C53.5681 59.6413 51.5367 59.4715 49.5294 59.4715C45.6841 59.6897 44.2088 57.7987 44.3298 54.0892C44.4507 50.3798 44.3298 46.8158 44.3298 43.1791C44.3298 37.0936 45.2729 37.4573 38.3804 37.4331H6.52975C0.894818 37.4816 0 36.5845 0 30.9112C0 22.4256 0 13.9399 0 5.45423C0 0.896214 0.894818 -0.000841949 5.48983 -0.000841949C7.3762 -0.000841949 9.23839 -0.000841949 11.1248 -0.000841949C11.6342 -0.0781781 12.1543 -0.0435808 12.6491 0.100554C13.1438 0.244689 13.6015 0.494917 13.9902 0.833908C14.379 1.1729 14.6896 1.59255 14.9005 2.0638C15.1115 2.53506 15.2177 3.04664 15.2119 3.56314C15.3096 4.1059 15.2793 4.66402 15.1237 5.193C14.968 5.72198 14.6912 6.20717 14.3153 6.60989C13.9395 7.01261 13.4749 7.32171 12.9588 7.51253C12.4426 7.70336 11.8891 7.77063 11.3424 7.70899C8.17428 7.56352 7.93244 9.26066 7.98081 11.7094C8.02917 14.1581 8.63378 14.9339 10.9797 14.7885C11.5215 14.6905 12.0785 14.7184 12.6079 14.8699C13.1373 15.0214 13.6251 15.2924 14.0337 15.6623C14.4424 16.0322 14.7611 16.491 14.9653 17.0036C15.1695 17.5161 15.2539 18.0688 15.2119 18.6191C15.2673 19.1651 15.1945 19.7165 14.9992 20.2291C14.8039 20.7418 14.4916 21.2015 14.0873 21.5715C13.683 21.9415 13.1979 22.2114 12.6709 22.3597C12.1439 22.508 11.5895 22.5306 11.0522 22.4256C7.93244 22.2074 8.05336 24.2439 7.98081 26.329C7.98081 28.9474 9.2142 29.5293 11.4633 29.408C14.6798 29.2141 18.7186 30.3051 20.9194 28.8262C23.1202 27.3472 21.7658 22.8377 22.0319 19.7101C22.2737 17.019 23.0234 14.8612 26.1674 14.8612C29.3113 14.8612 30.0127 17.116 30.1094 19.8556C30.3754 29.5535 30.4238 29.408 40.2426 29.5535C43.2656 29.5535 44.5958 28.9232 44.3781 25.5531C44.0879 21.2861 44.3781 16.9462 44.3781 12.6549C44.3781 9.93951 44.9827 7.80597 48.1992 7.58777C51.4157 7.36956 52.1413 9.72131 52.1413 12.4367C52.0203 18.2555 52.0445 24.2439 52.0687 30.1111Z" fill="#2A2D33"/>
<path d="M63.0725 88.5418C67.6192 88.5418 72.1658 88.5418 76.7367 88.5418C79.9773 88.5418 81.7186 90.045 81.5735 93.3908C81.5735 97.8033 81.5735 102.24 81.5735 106.677C81.5735 109.635 80.2192 111.211 77.1962 111.186C74.9228 111.186 72.6253 111.186 70.352 111.186C69.8461 111.236 69.3354 111.175 68.855 111.009C68.3746 110.842 67.9356 110.574 67.5682 110.222C67.2009 109.87 66.9137 109.442 66.7263 108.968C66.5389 108.495 66.4557 107.986 66.4825 107.477C66.4825 105.052 67.6192 103.428 70.086 103.598C73.5685 103.84 73.5443 101.755 73.5443 99.258C73.5443 96.3729 71.6821 96.5426 69.7232 96.5426C64.7654 96.5426 59.8077 96.5426 54.8499 96.5426C52.4315 96.5426 51.851 97.6336 51.9478 99.7429C52.0445 101.852 51.6818 103.719 54.6564 103.549C57.6311 103.38 59.4933 104.519 59.2756 107.671C59.058 110.823 56.6879 111.235 54.0518 111.283C44.1363 111.405 44.1363 111.453 44.1363 101.319C44.1363 98.6519 44.1363 95.9607 44.1363 93.2695C44.0426 92.6216 44.099 91.9607 44.301 91.338C44.503 90.7154 44.8452 90.1477 45.3011 89.6789C45.7571 89.2101 46.3145 88.8527 46.9303 88.6345C47.5461 88.4163 48.2037 88.3431 48.8522 88.4206C53.6649 88.5176 58.3566 88.5418 63.0725 88.5418Z" fill="#2A2D33"/>
<path d="M7.25509 55.5206C7.25509 43.8346 6.50538 44.0771 18.6942 44.1983C23.12 44.1983 27.5457 44.1983 31.9714 44.1983C35.599 44.1983 37.558 45.6045 37.3161 49.4836C37.1952 51.496 37.3161 53.5083 37.3161 55.5206C37.3608 56.0291 37.2975 56.5413 37.1303 57.0234C36.9631 57.5056 36.6959 57.9468 36.3463 58.3179C35.9967 58.689 35.5726 58.9816 35.102 59.1764C34.6313 59.3713 34.1249 59.4639 33.6159 59.4482C31.1975 59.4482 29.5772 58.2603 29.7465 55.8358C29.9641 52.587 28.4647 51.9324 25.6835 52.1748C23.5553 52.3445 21.4029 52.1748 19.2505 52.1748C17.0981 52.1748 15.1875 51.9566 15.3084 55.1084C15.3084 57.5329 15.3084 59.3513 18.6217 59.1816C19.1642 59.1016 19.7179 59.1513 20.2377 59.3264C20.7575 59.5016 21.2287 59.7974 21.6129 60.1896C21.9971 60.5819 22.2835 61.0596 22.4487 61.5837C22.6139 62.1079 22.6533 62.6638 22.5637 63.2062C22.4186 65.8004 20.7015 66.8671 18.1864 66.8671C6.81977 66.9641 7.25509 67.74 7.25509 55.5206Z" fill="#2A2D33"/>
<path d="M103.775 44.2207H113.449C116.883 44.2207 118.721 45.7239 118.672 49.3121C118.672 53.6034 118.672 57.919 118.672 62.2103C118.672 65.2894 117.27 67.0593 114.053 67.0593C112.022 67.0593 110.014 67.0593 108.007 67.0593C105.347 67.0593 103.436 65.9925 103.412 63.1801C103.364 62.6339 103.441 62.0838 103.638 61.5722C103.835 61.0605 104.146 60.601 104.548 60.2287C104.949 59.8565 105.431 59.5815 105.955 59.4248C106.479 59.2682 107.032 59.2341 107.572 59.3252C110.184 59.4707 110.667 58.1372 110.692 55.8824C110.716 53.6277 110.135 52.0518 107.354 52.3185C105.477 52.4276 103.596 52.4276 101.719 52.3185C98.7445 52.3185 95.6973 51.7366 96.1568 56.5613C96.3503 58.4766 94.5607 59.5676 92.5775 59.5676C92.1039 59.6179 91.625 59.5696 91.1708 59.4256C90.7166 59.2817 90.297 59.0453 89.9383 58.7311C89.5795 58.417 89.2894 58.032 89.086 57.6002C88.8826 57.1684 88.7704 56.6992 88.7564 56.2219C88.563 53.4128 88.563 50.5937 88.7564 47.7847C88.9257 45.3602 90.7395 44.4147 92.9887 44.3662C96.5921 44.3662 100.244 44.3662 103.823 44.3662L103.775 44.2207Z" fill="#2A2D33"/>
<path d="M62.589 126.071H55.7449C55.239 126.126 54.7274 126.073 54.2433 125.916C53.7592 125.759 53.3134 125.502 52.9348 125.162C52.5562 124.821 52.2533 124.404 52.0458 123.939C51.8383 123.473 51.7308 122.969 51.7303 122.459C51.6597 121.949 51.7009 121.429 51.8512 120.937C52.0014 120.445 52.257 119.991 52.6 119.608C52.9431 119.225 53.3655 118.921 53.8376 118.718C54.3098 118.516 54.8203 118.419 55.3337 118.434C60.4286 118.256 65.5314 118.256 70.6424 118.434C71.1558 118.419 71.6664 118.516 72.1385 118.718C72.6106 118.921 73.033 119.225 73.3761 119.608C73.7192 119.991 73.9747 120.445 74.125 120.937C74.2752 121.429 74.3164 121.949 74.2458 122.459C74.2526 122.969 74.1509 123.474 73.9474 123.942C73.7439 124.409 73.4433 124.828 73.0657 125.17C72.6881 125.512 72.2421 125.769 71.7575 125.924C71.2729 126.08 70.7609 126.13 70.2554 126.071H62.589Z" fill="#2A2D33"/>
<path d="M52.0203 74.1878C52.0203 75.4 52.0203 76.6123 52.0203 77.8003C52.0741 78.3019 52.018 78.8093 51.8559 79.287C51.6938 79.7647 51.4297 80.2012 51.082 80.5659C50.7342 80.9307 50.3113 81.215 49.8426 81.3989C49.3739 81.5829 48.8709 81.662 48.3685 81.6309C47.8582 81.6975 47.3394 81.649 46.8501 81.489C46.3608 81.329 45.9133 81.0615 45.5403 80.7061C45.1672 80.3506 44.8779 79.9162 44.6936 79.4345C44.5093 78.9528 44.4346 78.4359 44.4749 77.9215C44.4749 75.1818 43.6768 74.0908 40.823 74.1878C40.3023 74.259 39.7723 74.2069 39.2753 74.0356C38.7784 73.8643 38.3284 73.5785 37.9615 73.2013C37.5947 72.8241 37.3211 72.366 37.1629 71.8636C37.0046 71.3612 36.9661 70.8286 37.0503 70.3086C37.007 69.7988 37.0745 69.2856 37.2481 68.8045C37.4217 68.3233 37.6973 67.8856 38.0559 67.5215C38.4145 67.1574 38.8476 66.8756 39.3253 66.6954C39.803 66.5153 40.314 66.4411 40.823 66.478C42.0081 66.478 43.2415 66.478 44.4265 66.478C52.0203 66.5022 52.0687 66.5507 52.0203 74.1878Z" fill="#2A2D33"/>
<path d="M73.9072 73.8483C74.2699 71.7633 72.7463 68.466 75.6484 67.2295C79.3307 65.8987 83.3538 65.8559 87.0634 67.1083C88.8047 67.5932 89.1916 69.5328 88.9014 71.1572C88.7924 72.042 88.3521 72.8523 87.6696 73.424C86.9871 73.9957 86.1134 74.286 85.2254 74.2362C83.2423 74.2362 81.4527 74.2362 81.6461 77.1214C81.7742 77.6916 81.7661 78.2842 81.6224 78.8507C81.4787 79.4172 81.2035 79.9416 80.8192 80.3812C80.4349 80.8209 79.9524 81.1632 79.4111 81.3804C78.8697 81.5975 78.2848 81.6834 77.7041 81.6309C74.5118 81.6309 73.8346 79.2064 73.9314 76.588C73.9314 75.7879 73.9072 74.9878 73.9072 73.8483Z" fill="#2A2D33"/>
</g>
<defs>
<clipPath id="clip0_1840_34005">
<rect width="126" height="126" fill="white"/>
</clipPath>
</defs>
</svg>

            <svg id="eye" width="22" height="16" viewBox="0 0 22 16" fill="none" xmlns="http://www.w3.org/2000/svg">
            <path d="M21.318 7.74925L21.3176 7.74822C20.5055 5.64749 19.0956 3.83077 17.2622 2.52261C15.4288 1.21444 13.2522 0.472171 11.0016 0.387535L11.0016 0.387394L10.9978 0.387535C8.74717 0.472171 6.57064 1.21444 4.73724 2.52261C2.90385 3.83077 1.49396 5.64749 0.681821 7.74822L0.68181 7.74822L0.681436 7.74925C0.622855 7.91128 0.622855 8.08872 0.681436 8.25075L0.681425 8.25075L0.681821 8.25178C1.49396 10.3525 2.90385 12.1692 4.73724 13.4774C6.57064 14.7856 8.74717 15.5278 10.9978 15.6125L10.9978 15.6126L11.0016 15.6125C13.2522 15.5278 15.4288 14.7856 17.2622 13.4774C19.0956 12.1692 20.5055 10.3525 21.3176 8.25178L21.318 8.25075C21.3766 8.08872 21.3766 7.91128 21.318 7.74925ZM10.9997 14.1375C7.38401 14.1375 3.55891 11.4587 2.16422 8C3.55891 4.54126 7.38401 1.8625 10.9997 1.8625C14.6154 1.8625 18.4405 4.54126 19.8352 8C18.4405 11.4587 14.6154 14.1375 10.9997 14.1375Z" fill="#8A939B" stroke="currentColor" stroke-width="0.1"/>

            <svg width="22" height="16" viewBox="-6 -3 22 16" fill="none" xmlns="http://www.w3.org/2000/svg">
            <path d="M5 0.825C4.17426 0.825 3.36707 1.06986 2.6805 1.52861C1.99392 1.98737 1.4588 2.63942 1.1428 3.4023C0.826809 4.16518 0.74413 5.00463 0.905223 5.8145C1.06632 6.62437 1.46395 7.36829 2.04783 7.95217C2.63172 8.53606 3.37563 8.93369 4.1855 9.09478C4.99537 9.25587 5.83482 9.17319 6.5977 8.8572C7.36059 8.5412 8.01263 8.00608 8.47139 7.31951C8.93014 6.63293 9.175 5.82574 9.175 5C9.175 3.89272 8.73514 2.83079 7.95217 2.04783C7.16921 1.26486 6.10728 0.825 5 0.825ZM5 7.7C4.46599 7.7 3.94397 7.54165 3.49996 7.24497C3.05595 6.94829 2.70988 6.52661 2.50553 6.03325C2.30117 5.53988 2.2477 4.997 2.35188 4.47326C2.45606 3.94951 2.71321 3.46841 3.09081 3.09081C3.46842 2.71321 3.94951 2.45606 4.47326 2.35188C4.99701 2.2477 5.53989 2.30117 6.03325 2.50552C6.52661 2.70988 6.94829 3.05595 7.24497 3.49996C7.54165 3.94397 7.7 4.46599 7.7 5C7.7 5.71608 7.41554 6.40284 6.90919 6.90919C6.40284 7.41554 5.71609 7.7 5 7.7Z" fill="#8A939B" stroke="#8A939B" stroke-width="0.1"/>
            </svg>
            
            </svg>


            <svg id="open_new" width="16" height="16" viewBox="0 0 16 16" fill="none" xmlns="http://www.w3.org/2000/svg">
            <path d="M2.41699 15.0837C2.00033 15.0837 1.64616 14.9378 1.35449 14.6462C1.06283 14.3545 0.916992 14.0003 0.916992 13.5837V2.41699C0.916992 2.00033 1.06283 1.64616 1.35449 1.35449C1.64616 1.06283 2.00033 0.916992 2.41699 0.916992H7.68783V2.16699H2.41699C2.36144 2.16699 2.30588 2.19477 2.25033 2.25033C2.19477 2.30588 2.16699 2.36144 2.16699 2.41699V13.5837C2.16699 13.6392 2.19477 13.6948 2.25033 13.7503C2.30588 13.8059 2.36144 13.8337 2.41699 13.8337H13.5837C13.6392 13.8337 13.6948 13.8059 13.7503 13.7503C13.8059 13.6948 13.8337 13.6392 13.8337 13.5837V8.31283H15.0837V13.5837C15.0837 14.0003 14.9378 14.3545 14.6462 14.6462C14.3545 14.9378 14.0003 15.0837 13.5837 15.0837H2.41699ZM6.10449 10.7712L5.22949 9.89616L12.9587 2.16699H9.66699V0.916992H15.0837V6.33366H13.8337V3.04199L6.10449 10.7712Z" fill="currentColor"/>
            </svg>

            <svg id="share" width="16" height="22" viewBox="0 0 16 22" fill="none" xmlns="http://www.w3.org/2000/svg">
            <path d="M2 22C1.45 22 0.979333 21.8043 0.588 21.413C0.196 21.021 0 20.55 0 20V9C0 8.45 0.196 7.979 0.588 7.587C0.979333 7.19567 1.45 7 2 7H5V9H2V20H14V9H11V7H14C14.55 7 15.021 7.19567 15.413 7.587C15.8043 7.979 16 8.45 16 9V20C16 20.55 15.8043 21.021 15.413 21.413C15.021 21.8043 14.55 22 14 22H2ZM7 15V3.825L5.4 5.425L4 4L8 0L12 4L10.6 5.425L9 3.825V15H7Z" fill="currentColor"/>
            </svg>

            <svg id="refresh" width="16" height="16" viewBox="0 0 16 16" fill="none" xmlns="http://www.w3.org/2000/svg">
            <path d="M8 16C5.76667 16 3.875 15.225 2.325 13.675C0.775 12.125 0 10.2333 0 8C0 5.76667 0.775 3.875 2.325 2.325C3.875 0.775 5.76667 0 8 0C9.15 0 10.25 0.237666 11.3 0.713C12.35 1.18767 13.25 1.86667 14 2.75V0H16V7H9V5H13.2C12.6667 4.06667 11.9377 3.33333 11.013 2.8C10.0877 2.26667 9.08333 2 8 2C6.33333 2 4.91667 2.58333 3.75 3.75C2.58333 4.91667 2 6.33333 2 8C2 9.66667 2.58333 11.0833 3.75 12.25C4.91667 13.4167 6.33333 14 8 14C9.28333 14 10.4417 13.6333 11.475 12.9C12.5083 12.1667 13.2333 11.2 13.65 10H15.75C15.2833 11.7667 14.3333 13.2083 12.9 14.325C11.4667 15.4417 9.83333 16 8 16Z" fill="currentColor"/>
            </svg>

            <svg id="close" width="8" height="8" viewBox="0 0 8 8" fill="none" xmlns="http://www.w3.org/2000/svg">
            <path d="M4.93909 3.99943L7.80299 1.14179C7.92841 1.01635 7.99886 0.846231 7.99886 0.668843C7.99886 0.491455 7.92841 0.321332 7.80299 0.1959C7.67758 0.0704672 7.50748 0 7.33011 0C7.15275 0 6.98265 0.0704672 6.85724 0.1959L4 3.06021L1.14276 0.1959C1.01735 0.0704672 0.847248 -1.32164e-09 0.669885 0C0.492522 1.32165e-09 0.322423 0.0704672 0.197008 0.1959C0.0715939 0.321332 0.00113664 0.491455 0.00113663 0.668843C0.00113663 0.846231 0.0715939 1.01635 0.197008 1.14179L3.06091 3.99943L0.197008 6.85708C0.134583 6.919 0.085035 6.99267 0.0512219 7.07385C0.0174088 7.15502 0 7.24208 0 7.33002C0 7.41795 0.0174088 7.50502 0.0512219 7.58619C0.085035 7.66737 0.134583 7.74104 0.197008 7.80296C0.258924 7.8654 0.332587 7.91495 0.413748 7.94877C0.494909 7.98259 0.581962 8 0.669885 8C0.757808 8 0.844861 7.98259 0.926022 7.94877C1.00718 7.91495 1.08085 7.8654 1.14276 7.80296L4 4.93866L6.85724 7.80296C6.91915 7.8654 6.99282 7.91495 7.07398 7.94877C7.15514 7.98259 7.24219 8 7.33011 8C7.41804 8 7.50509 7.98259 7.58625 7.94877C7.66741 7.91495 7.74108 7.8654 7.80299 7.80296C7.86542 7.74104 7.91497 7.66737 7.94878 7.58619C7.98259 7.50502 8 7.41795 8 7.33002C8 7.24208 7.98259 7.15502 7.94878 7.07385C7.91497 6.99267 7.86542 6.919 7.80299 6.85708L4.93909 3.99943Z" fill="currentColor"/>
            </svg>

            <svg id="user" width="38" height="38" viewBox="0 0 38 38" fill="none">
            <path d="M6.5 30.9833C8.34167 29.6833 10.2649 28.6542 12.2698 27.8958C14.2733 27.1375 16.4667 26.7583 18.85 26.7583C21.2333 26.7583 23.4274 27.1375 25.4323 27.8958C27.4358 28.6542 29.3583 29.6833 31.2 30.9833C32.6806 29.5028 33.8816 27.7333 34.8032 25.675C35.7233 23.6167 36.1833 21.3417 36.1833 18.85C36.1833 14.0472 34.4955 9.95728 31.1198 6.58017C27.7427 3.2045 23.6528 1.51667 18.85 1.51667C14.0472 1.51667 9.958 3.2045 6.58233 6.58017C3.20522 9.95728 1.51667 14.0472 1.51667 18.85C1.51667 21.3417 1.97744 23.6167 2.899 25.675C3.81911 27.7333 5.01944 29.5028 6.5 30.9833ZM18.85 19.6083C17.1167 19.6083 15.6542 19.0125 14.4625 17.8208C13.2708 16.6292 12.675 15.1667 12.675 13.4333C12.675 11.7 13.2708 10.2375 14.4625 9.04583C15.6542 7.85417 17.1167 7.25833 18.85 7.25833C20.5833 7.25833 22.0458 7.85417 23.2375 9.04583C24.4292 10.2375 25.025 11.7 25.025 13.4333C25.025 15.1667 24.4292 16.6292 23.2375 17.8208C22.0458 19.0125 20.5833 19.6083 18.85 19.6083ZM18.85 37.7C16.2139 37.7 13.7497 37.2125 11.4573 36.2375C9.16356 35.2625 7.16806 33.9264 5.47083 32.2292C3.77361 30.5319 2.4375 28.5364 1.4625 26.2427C0.4875 23.9503 0 21.4861 0 18.85C0 16.2139 0.4875 13.7489 1.4625 11.4552C2.4375 9.16283 3.77361 7.16806 5.47083 5.47083C7.16806 3.77361 9.16356 2.4375 11.4573 1.4625C13.7497 0.4875 16.2139 0 18.85 0C21.4861 0 23.9511 0.4875 26.2448 1.4625C28.5372 2.4375 30.5319 3.77361 32.2292 5.47083C33.9264 7.16806 35.2625 9.16283 36.2375 11.4552C37.2125 13.7489 37.7 16.2139 37.7 18.85C37.7 21.4861 37.2125 23.9503 36.2375 26.2427C35.2625 28.5364 33.9264 30.5319 32.2292 32.2292C30.5319 33.9264 28.5372 35.2625 26.2448 36.2375C23.9511 37.2125 21.4861 37.7 18.85 37.7ZM18.85 36.1833C20.8722 36.1833 22.8858 35.8136 24.8907 35.074C26.8941 34.333 28.6 33.3306 30.0083 32.0667C28.6 30.9111 26.9483 29.9903 25.0532 29.3042C23.1566 28.6181 21.0889 28.275 18.85 28.275C16.6111 28.275 14.5347 28.6087 12.6208 29.276C10.7069 29.9448 9.06389 30.875 7.69167 32.0667C9.1 33.3306 10.8066 34.333 12.8115 35.074C14.8149 35.8136 16.8278 36.1833 18.85 36.1833ZM18.85 18.0917C20.15 18.0917 21.2514 17.6403 22.1542 16.7375C23.0569 15.8347 23.5083 14.7333 23.5083 13.4333C23.5083 12.1333 23.0569 11.0319 22.1542 10.1292C21.2514 9.22639 20.15 8.775 18.85 8.775C17.55 8.775 16.4486 9.22639 15.5458 10.1292C14.6431 11.0319 14.1917 12.1333 14.1917 13.4333C14.1917 14.7333 14.6431 15.8347 15.5458 16.7375C16.4486 17.6403 17.55 18.0917 18.85 18.0917Z" fill="currentColor"/>
            </svg>

            <svg id="search" width="16" height="16" viewBox="0 0 16 16" fill="none">
            <path fill-rule="evenodd" clip-rule="evenodd" d="M11.2438 10.1743L15.2788 14.2093C15.4206 14.3512 15.5003 14.5436 15.5002 14.7443C15.5001 14.9449 15.4204 15.1373 15.2784 15.2791C15.1365 15.421 14.9441 15.5006 14.7434 15.5005C14.5428 15.5005 14.3504 15.4207 14.2086 15.2788L10.1736 11.2438C8.96735 12.178 7.45053 12.6177 5.93166 12.4733C4.4128 12.3289 3.00599 11.6113 1.99743 10.4665C0.988869 9.32165 0.454313 7.83562 0.502509 6.31067C0.550705 4.78572 1.17803 3.3364 2.25687 2.25756C3.33571 1.17872 4.78503 0.551392 6.30998 0.503196C7.83493 0.455 9.32096 0.989556 10.4658 1.99812C11.6106 3.00668 12.3282 4.41349 12.4726 5.93235C12.617 7.45122 12.1773 8.96804 11.2431 10.1743H11.2438ZM6.50007 11C7.69354 11 8.83814 10.5259 9.68205 9.68199C10.526 8.83807 11.0001 7.69348 11.0001 6.50001C11.0001 5.30653 10.526 4.16194 9.68205 3.31803C8.83814 2.47411 7.69354 2.00001 6.50007 2.00001C5.3066 2.00001 4.162 2.47411 3.31809 3.31803C2.47418 4.16194 2.00007 5.30653 2.00007 6.50001C2.00007 7.69348 2.47418 8.83807 3.31809 9.68199C4.162 10.5259 5.3066 11 6.50007 11Z" fill="#8A939B"/>
            </svg>

            <svg id="close" width="10" height="10" viewBox="0 0 10 10" fill="none">
            <path d="M6.05745 5L9.28245 1.7825C9.42368 1.64127 9.50302 1.44973 9.50302 1.25C9.50302 1.05028 9.42368 0.85873 9.28245 0.717502C9.14123 0.576274 8.94968 0.496933 8.74995 0.496933C8.55023 0.496933 8.35868 0.576274 8.21745 0.717502L4.99995 3.9425L1.78245 0.717502C1.64123 0.576274 1.44968 0.496933 1.24995 0.496933C1.05023 0.496933 0.858682 0.576274 0.717454 0.717502C0.576226 0.85873 0.496885 1.05028 0.496885 1.25C0.496885 1.44973 0.576226 1.64127 0.717454 1.7825L3.94245 5L0.717454 8.2175C0.647158 8.28722 0.591362 8.37017 0.553286 8.46157C0.515209 8.55296 0.495605 8.65099 0.495605 8.75C0.495605 8.84901 0.515209 8.94704 0.553286 9.03843C0.591362 9.12983 0.647158 9.21278 0.717454 9.2825C0.787176 9.3528 0.870127 9.4086 0.961522 9.44667C1.05292 9.48475 1.15095 9.50435 1.24995 9.50435C1.34896 9.50435 1.44699 9.48475 1.53839 9.44667C1.62978 9.4086 1.71273 9.3528 1.78245 9.2825L4.99995 6.0575L8.21745 9.2825C8.28718 9.3528 8.37013 9.4086 8.46152 9.44667C8.55292 9.48475 8.65095 9.50435 8.74995 9.50435C8.84896 9.50435 8.94699 9.48475 9.03839 9.44667C9.12978 9.4086 9.21273 9.3528 9.28245 9.2825C9.35275 9.21278 9.40855 9.12983 9.44662 9.03843C9.4847 8.94704 9.5043 8.84901 9.5043 8.75C9.5043 8.65099 9.4847 8.55296 9.44662 8.46157C9.40855 8.37017 9.35275 8.28722 9.28245 8.2175L6.05745 5Z" fill="currentColor"/>
            </svg>

            <svg id="academic-cap" xmlns="http://www.w3.org/2000/svg" fill="none" viewBox="0 0 24 24" stroke="currentColor">
            <path d="M12 14l9-5-9-5-9 5 9 5z"/>
            <path d="M12 14l6.16-3.422a12.083 12.083 0 01.665 6.479A11.952 11.952 0 0012 20.055a11.952 11.952 0 00-6.824-2.998 12.078 12.078 0 01.665-6.479L12 14z"/>
            <path stroke-linecap="round" stroke-linejoin="round" stroke-width="2" d="M12 14l9-5-9-5-9 5 9 5zm0 0l6.16-3.422a12.083 12.083 0 01.665 6.479A11.952 11.952 0 0012 20.055a11.952 11.952 0 00-6.824-2.998 12.078 12.078 0 01.665-6.479L12 14zm-4 6v-7.5l4-2.222"/>

            <svg id="arrow_down" width="13" height="8" viewBox="0 0 13 8" fill="none" xmlns="http://www.w3.org/2000/svg">
            <path d="M11.8242 1.00401C11.6551 0.832613 11.4256 0.736328 11.1864 0.736328C10.9472 0.736328 10.7178 0.832613 10.5486 1.00401L6.08293 5.52953L1.61727 1.00401C1.44712 0.83747 1.21923 0.745319 0.982693 0.747402C0.746151 0.749485 0.519879 0.845635 0.352612 1.01514C0.185346 1.18465 0.0904684 1.41396 0.0884132 1.65367C0.0863571 1.89338 0.177289 2.12432 0.341624 2.29675L5.44511 7.46865C5.61429 7.64004 5.84371 7.73633 6.08293 7.73633C6.32215 7.73633 6.55158 7.64004 6.72076 7.46865L11.8242 2.29675C11.9934 2.12531 12.0884 1.89281 12.0884 1.65038C12.0884 1.40795 11.9934 1.17545 11.8242 1.00401Z" fill="currentColor"/>
            </svg>

            <svg id="arrow_up" width="13" height="8" viewBox="0 0 13 8" fill="none" xmlns="http://www.w3.org/2000/svg">
            <path d="M1.17625 6.9955C1.34543 7.1669 1.57485 7.26318 1.81407 7.26318C2.05329 7.26318 2.28271 7.1669 2.45189 6.9955L6.91756 2.46998L11.3832 6.9955C11.5534 7.16204 11.7813 7.25419 12.0178 7.25211C12.2543 7.25003 12.4806 7.15388 12.6479 6.98437C12.8151 6.81486 12.91 6.58555 12.9121 6.34584C12.9141 6.10613 12.8232 5.87519 12.6589 5.70276L7.55538 0.530863C7.3862 0.359468 7.15677 0.263184 6.91756 0.263184C6.67834 0.263184 6.44891 0.359468 6.27973 0.530863L1.17625 5.70276C1.00712 5.87421 0.912109 6.10671 0.912109 6.34913C0.912109 6.59156 1.00712 6.82406 1.17625 6.9955Z" fill="currentColor"/>
            </svg>


            <svg id="arrow_left" width="7" height="12" viewBox="0 0 12 21" fill="none" xmlns="http://www.w3.org/2000/svg">
            <path d="M11.5411 0.462242C11.8349 0.758305 12 1.1598 12 1.57843C12 1.99707 11.8349 2.39856 11.5411 2.69462L3.78308 10.5095L11.5411 18.3244C11.8266 18.6222 11.9846 19.021 11.981 19.4349C11.9774 19.8489 11.8126 20.2449 11.522 20.5376C11.2314 20.8303 10.8383 20.9963 10.4274 20.9999C10.0165 21.0035 9.62058 20.8444 9.32499 20.5568L0.458879 11.6257C0.165059 11.3297 0 10.9282 0 10.5095C0 10.0909 0.165059 9.6894 0.458879 9.39334L9.32499 0.462242C9.6189 0.166269 10.0175 0 10.4331 0C10.8486 0 11.2472 0.166269 11.5411 0.462242Z" fill="currentColor"/>
            </svg>

            <svg id="arrow_right" width="12" height="21" viewBox="0 0 12 21" fill="none" xmlns="http://www.w3.org/2000/svg">
            <path d="M0.458879 0.462242C0.165059 0.758305 0 1.1598 0 1.57843C0 1.99707 0.165059 2.39856 0.458879 2.69462L8.21692 10.5095L0.458879 18.3244C0.173386 18.6222 0.0154122 19.021 0.0189831 19.4349C0.022554 19.8489 0.187384 20.2449 0.47797 20.5376C0.768557 20.8303 1.16165 20.9963 1.57259 20.9999C1.98352 21.0035 2.37942 20.8444 2.67501 20.5568L11.5411 11.6257C11.8349 11.3297 12 10.9282 12 10.5095C12 10.0909 11.8349 9.6894 11.5411 9.39334L2.67501 0.462242C2.3811 0.166269 1.98253 0 1.56695 0C1.15136 0 0.752787 0.166269 0.458879 0.462242Z" fill="currentColor"/>
            </svg>

            <svg id="like" width="25" height="23" viewBox="0 0 25 23" fill="currentColor" xmlns="http://www.w3.org/2000/svg">
            <path d="M12.3333 22.0918L10.5933 20.5332C8.57325 18.7149 6.90325 17.1463 5.58325 15.8275C4.26325 14.5087 3.21325 13.3246 2.43325 12.2751C1.65325 11.2265 1.10845 10.2626 0.798852 9.38335C0.488452 8.50415 0.333252 7.60497 0.333252 6.6858C0.333252 4.80751 0.963252 3.23894 2.22325 1.98008C3.48325 0.721224 5.05325 0.0917969 6.93325 0.0917969C7.97325 0.0917969 8.96325 0.311597 9.90325 0.751197C10.8433 1.1908 11.6533 1.81023 12.3333 2.60951C13.0133 1.81023 13.8233 1.1908 14.7633 0.751197C15.7033 0.311597 16.6933 0.0917969 17.7333 0.0917969C19.6133 0.0917969 21.1833 0.721224 22.4433 1.98008C23.7033 3.23894 24.3333 4.80751 24.3333 6.6858C24.3333 7.60497 24.1785 8.50415 23.8689 9.38335C23.5585 10.2626 23.0133 11.2265 22.2333 12.2751C21.4533 13.3246 20.4033 14.5087 19.0833 15.8275C17.7633 17.1463 16.0933 18.7149 14.0733 20.5332L12.3333 22.0918ZM12.3333 18.8547C14.2533 17.1363 15.8333 15.6624 17.0733 14.4332C18.3133 13.2047 19.2933 12.136 20.0133 11.2273C20.7333 10.3177 21.2333 9.50804 21.5133 8.79828C21.7933 8.08933 21.9333 7.38517 21.9333 6.6858C21.9333 5.48689 21.5333 4.4878 20.7333 3.68853C19.9333 2.88925 18.9333 2.48962 17.7333 2.48962C16.7933 2.48962 15.9233 2.75418 15.1233 3.2833C14.3233 3.81321 13.7733 4.4878 13.4733 5.30706H11.1933C10.8933 4.4878 10.3433 3.81321 9.54325 3.2833C8.74325 2.75418 7.87325 2.48962 6.93325 2.48962C5.73325 2.48962 4.73325 2.88925 3.93325 3.68853C3.13325 4.4878 2.73325 5.48689 2.73325 6.6858C2.73325 7.38517 2.87325 8.08933 3.15325 8.79828C3.43325 9.50804 3.93325 10.3177 4.65325 11.2273C5.37325 12.136 6.35325 13.2047 7.59325 14.4332C8.83325 15.6624 10.4133 17.1363 12.3333 18.8547Z" fill="currentColor"/>
            </svg>

            <svg id="tune" width="18" height="18" viewBox="0 0 18 18" fill="none" xmlns="http://www.w3.org/2000/svg">
            <path d="M8 18V12H10V14H18V16H10V18H8ZM0 16V14H6V16H0ZM4 12V10H0V8H4V6H6V12H4ZM8 10V8H18V10H8ZM12 6V0H14V2H18V4H14V6H12ZM0 4V2H10V4H0Z" fill="currentColor"/>
            </svg>

            <svg id="update" width="22" height="22" viewBox="0 0 22 22" fill="none" xmlns="http://www.w3.org/2000/svg">
            <path d="M11 21.5C9.54167 21.5 8.17589 21.2231 6.90267 20.6693C5.62867 20.1148 4.52033 19.3658 3.57767 18.4223C2.63422 17.4797 1.88522 16.3713 1.33067 15.0973C0.776889 13.8241 0.5 12.4583 0.5 11C0.5 9.54167 0.776889 8.1755 1.33067 6.9015C1.88522 5.62828 2.63422 4.51994 3.57767 3.5765C4.52033 2.63383 5.62867 1.88522 6.90267 1.33067C8.17589 0.776889 9.54167 0.5 11 0.5C12.5944 0.5 14.1064 0.840278 15.536 1.52083C16.9648 2.20139 18.175 3.16389 19.1667 4.40833V1.66667H21.5V8.66667H14.5V6.33333H17.7083C16.9111 5.24444 15.9292 4.38889 14.7625 3.76667C13.5958 3.14444 12.3417 2.83333 11 2.83333C8.725 2.83333 6.79533 3.6255 5.211 5.20983C3.62589 6.79494 2.83333 8.725 2.83333 11C2.83333 13.275 3.62589 15.2047 5.211 16.789C6.79533 18.3741 8.725 19.1667 11 19.1667C13.0417 19.1667 14.8255 18.5056 16.3515 17.1833C17.8783 15.8611 18.7778 14.1889 19.05 12.1667H21.4417C21.15 14.8306 20.0078 17.0519 18.0152 18.8307C16.0217 20.6102 13.6833 21.5 11 21.5ZM14.2667 15.9L9.83333 11.4667V5.16667H12.1667V10.5333L15.9 14.2667L14.2667 15.9Z" fill="currentColor"/>
            </svg>
            
        </svg>

    </defs>

</svg>