<svg xmlns="http://www.w3.org/2000/svg" xmlns:xlink="http://www.w3.org/1999/xlink">

    <defs>
    
        <svg id="bottom_rectangle" width="67" height="2" viewBox="0 0 67 2" fill="none" xmlns="http://www.w3.org/2000/svg">
        <path d="M0 4C0 1.79086 1.79086 0 4 0H63C65.2091 0 67 1.79086 67 4H0Z" fill="#FFD011"/>
        </svg>

        <svg id="point" width="18" height="18" viewBox="0 0 18 18" fill="none" xmlns="http://www.w3.org/2000/svg">
        <circle cx="9" cy="9" r="9" fill="currentColor"/>
        </svg>

        <svg id="point_grey" width="16" height="16" fill="currentColor" viewBox="0 0 24 24" xmlns="http://www.w3.org/2000/svg">
        <circle cx="8" cy="8" r="8" fill="currentColor"/>
        </svg>

        <svg id="like" width="25" height="23" viewBox="0 0 25 23" fill="currentColor" xmlns="http://www.w3.org/2000/svg">
        <path d="M12.3333 22.0917L10.5933 20.5331C8.57325 18.7147 6.90325 17.1462 5.58325 15.8274C4.26325 14.5086 3.21325 13.3244 2.43325 12.275C1.65325 11.2264 1.10845 10.2624 0.798852 9.38323C0.488452 8.50403 0.333252 7.60484 0.333252 6.68568C0.333252 4.80739 0.963252 3.23881 2.22325 1.97996C3.48325 0.721102 5.05325 0.0916748 6.93325 0.0916748C7.97325 0.0916748 8.96325 0.311475 9.90325 0.751075C10.8433 1.19068 11.6533 1.81011 12.3333 2.60939C13.0133 1.81011 13.8233 1.19068 14.7633 0.751075C15.7033 0.311475 16.6933 0.0916748 17.7333 0.0916748C19.6133 0.0916748 21.1833 0.721102 22.4433 1.97996C23.7033 3.23881 24.3333 4.80739 24.3333 6.68568C24.3333 7.60484 24.1785 8.50403 23.8689 9.38323C23.5585 10.2624 23.0133 11.2264 22.2333 12.275C21.4533 13.3244 20.4033 14.5086 19.0833 15.8274C17.7633 17.1462 16.0933 18.7147 14.0733 20.5331L12.3333 22.0917ZM12.3333 18.8546C14.2533 17.1362 15.8333 15.6623 17.0733 14.433C18.3133 13.2046 19.2933 12.1359 20.0133 11.2272C20.7333 10.3176 21.2332 9.50791 21.5133 8.79816C21.7933 8.0892 21.9333 7.38504 21.9333 6.68568C21.9333 5.48677 21.5333 4.48768 20.7333 3.68841C19.9333 2.88913 18.9333 2.4895 17.7333 2.4895C16.7933 2.4895 15.9233 2.75405 15.1233 3.28317C14.3233 3.81309 13.7733 4.48768 13.4733 5.30693H11.1933C10.8933 4.48768 10.3433 3.81309 9.54325 3.28317C8.74325 2.75405 7.87325 2.4895 6.93325 2.4895C5.73325 2.4895 4.73325 2.88913 3.93325 3.68841C3.13325 4.48768 2.73325 5.48677 2.73325 6.68568C2.73325 7.38504 2.87325 8.0892 3.15325 8.79816C3.43325 9.50791 3.93325 10.3176 4.65325 11.2272C5.37325 12.1359 6.35325 13.2046 7.59325 14.433C8.83325 15.6623 10.4133 17.1362 12.3333 18.8546Z" fill="currentColor"/>
        <path d="M12.3333 18.8546C14.2533 17.1362 15.8333 15.6623 17.0733 14.433C18.3133 13.2046 19.2933 12.1359 20.0133 11.2272C20.7333 10.3176 21.2332 9.50791 21.5133 8.79816C21.7933 8.0892 21.9333 7.38504 21.9333 6.68568C21.9333 5.48677 21.5333 4.48768 20.7333 3.68841C19.9333 2.88913 18.9333 2.4895 17.7333 2.4895C16.7933 2.4895 15.9233 2.75405 15.1233 3.28317C14.3233 3.81309 13.7733 4.48768 13.4733 5.30693H11.1933C10.8933 4.48768 10.3433 3.81309 9.54325 3.28317C8.74325 2.75405 7.87325 2.4895 6.93325 2.4895C5.73325 2.4895 4.73325 2.88913 3.93325 3.68841C3.13325 4.48768 2.73325 5.48677 2.73325 6.68568C2.73325 7.38504 2.87325 8.0892 3.15325 8.79816C3.43325 9.50791 3.93325 10.3176 4.65325 11.2272C5.37325 12.1359 6.35325 13.2046 7.59325 14.433C8.83325 15.6623 10.4133 17.1362 12.3333 18.8546Z" fill="currentColor"/>
        </svg>

    </defs>

</svg>