<svg xmlns="http://www.w3.org/2000/svg" xmlns:xlink="http://www.w3.org/1999/xlink">

    <defs>

        <svg id='no-image' width="91" height="80" viewBox="0 0 91 80" fill="currentColor" xmlns="http://www.w3.org/2000/svg">
        <path d="M33.7617 25.9375C33.7617 28.1753 32.8728 30.3214 31.2904 31.9037C29.7081 33.4861 27.562 34.375 25.3242 34.375C23.0865 34.375 20.9403 33.4861 19.358 31.9037C17.7757 30.3214 16.8867 28.1753 16.8867 25.9375C16.8867 23.6997 17.7757 21.5536 19.358 19.9713C20.9403 18.3889 23.0865 17.5 25.3242 17.5C27.562 17.5 29.7081 18.3889 31.2904 19.9713C32.8728 21.5536 33.7617 23.6997 33.7617 25.9375Z" fill="currentColor"/>
        <path d="M11.2617 0.625C8.27803 0.625 5.41655 1.81026 3.30677 3.92005C1.19698 6.02983 0.0117188 8.89131 0.0117188 11.875V68.125C0.0117188 71.1087 1.19698 73.9702 3.30677 76.0799C5.41655 78.1897 8.27803 79.375 11.2617 79.375H78.7617C81.7454 79.375 84.6069 78.1897 86.7167 76.0799C88.8265 73.9702 90.0117 71.1087 90.0117 68.125V11.875C90.0117 8.89131 88.8265 6.02983 86.7167 3.92005C84.6069 1.81026 81.7454 0.625 78.7617 0.625H11.2617ZM78.7617 6.25C80.2536 6.25 81.6843 6.84263 82.7392 7.89752C83.7941 8.95242 84.3867 10.3832 84.3867 11.875V48.4375L63.1411 37.4856C62.6136 37.2214 62.0164 37.1297 61.4339 37.2236C60.8514 37.3175 60.3132 37.5922 59.8955 38.0088L39.0267 58.8775L24.0642 48.91C23.524 48.5503 22.876 48.3886 22.2301 48.4521C21.5842 48.5157 20.9802 48.8007 20.5205 49.2588L5.63672 62.5V11.875C5.63672 10.3832 6.22935 8.95242 7.28424 7.89752C8.33914 6.84263 9.76988 6.25 11.2617 6.25H78.7617Z" fill="currentColor"/>
        </svg>

        <svg id="buy-item" width="260" height="260" viewBox="0 0 260 260" fill="none" xmlns="http://www.w3.org/2000/svg">
        <path d="M258 2L242 50L97.0596 181.76L89.8296 170.62L78.1496 163.04L210 18L258 2ZM101.029 238.26L112.343 226.946L81.1666 178.926L33.1466 147.75L21.8326 159.064L53.2186 190.45L18.9586 228.143C14.4946 227.557 9.82057 228.963 6.39057 232.392C0.53257 238.25 0.53257 247.747 6.39057 253.605C12.2486 259.463 21.7456 259.463 27.6036 253.605C31.0316 250.177 32.4376 245.505 31.8536 241.043L69.5486 206.781L101.029 238.26Z" fill="currentColor"/>
        </svg>

        <svg id="buy-gem" width="260" height="260" viewBox="0 0 260 260" fill="none" xmlns="http://www.w3.org/2000/svg">
        <path d="M130 252C127.835 252 125.673 251.225 123.979 249.676L64.7808 195.519C63.0058 193.897 62 191.629 62 189.255V70.8873C62 68.4915 63.0261 66.203 64.832 64.5768L124.03 11.2775C125.716 9.75915 127.857 9 130.001 9C132.143 9 134.283 9.7585 135.968 11.2775L195.167 64.5768C196.971 66.2037 198 68.4909 198 70.8873V189.255C198 191.629 196.992 193.896 195.217 195.519L136.019 249.676C134.327 251.225 132.163 252 130 252Z" fill="currentColor"/>
        <path d="M129.978 207.118C129.974 207.117 129.971 207.116 129.969 207.116L89.8584 170.344V90.0737L129.968 53.8843C129.973 53.8828 129.985 53.8799 130.002 53.8799C130.011 53.8799 130.018 53.8807 130.024 53.8818C130.028 53.8824 130.03 53.883 130.032 53.8835L170.144 90.0745V170.343L130.032 207.116C130.03 207.117 130.027 207.117 130.023 207.118C130.02 207.119 130.017 207.119 130.013 207.119C130.009 207.12 130.005 207.12 130.001 207.12C129.992 207.12 129.984 207.119 129.978 207.118ZM170.202 170.289L170.201 170.29L170.202 170.289Z" stroke="#353840" stroke-width="12"/>
        </svg>

        <svg id="buy-avatar" width="260" height="260" viewBox="0 0 260 260" fill="none" xmlns="http://www.w3.org/2000/svg">
        <path d="M65.7505 240.397H193.598C203.089 240.378 212.407 237.851 220.611 233.072C228.815 228.293 235.615 221.43 240.324 213.177C238.805 209.122 236.77 205.279 234.27 201.745C225.597 190.065 170.939 172.743 168.518 170.788C164.928 166.87 161.578 162.738 158.486 158.416H157.942V147.255C160.822 143.63 163.307 139.706 165.355 135.551C166.848 131.275 167.795 126.826 168.172 122.312C177.141 118.18 178.327 103.753 178.698 95.6365C178.846 92.1969 177.438 91.504 175.684 91.8752C176.054 90.539 176.351 89.4007 176.548 88.2129C179.258 78.6614 180.409 68.7345 179.958 58.8154L183.764 58.9391C178.284 48.7969 170.251 40.2662 160.462 34.1937L165.058 34.0205C155.51 26.3512 143.859 21.7688 131.651 20.8807L134.122 19C122.786 20.9739 112.241 26.1215 103.704 33.8472C101.024 32.6085 98.203 31.7027 95.3032 31.15L99.5285 34.8123C92.8543 35.5019 86.513 38.0764 81.2435 42.2359L85.2711 42.5576C79.8853 48.7165 75.507 55.6902 72.2986 63.22L76.4745 62.7004C78.3047 71.8551 80.6978 80.8879 83.6403 89.7471C83.6403 90.0688 83.6403 90.4153 83.6403 90.7369C83.6027 91.132 83.6027 91.5297 83.6403 91.9247C82.1083 91.7762 80.9469 92.6423 81.1693 95.7603C81.5647 103.852 82.6519 118.279 91.6709 122.411C92.0448 126.926 92.9914 131.375 94.4878 135.65C96.4929 139.705 98.9197 143.537 101.728 147.082V158.688H101.209C98.1064 163.01 94.7481 167.141 91.152 171.061C88.681 173.015 34.0728 190.337 25.3998 202.017C22.7812 205.481 20.6295 209.275 19 213.301C23.7264 221.534 30.5368 228.374 38.7445 233.132C46.9523 237.889 56.2673 240.395 65.7505 240.397Z" fill="currentColor"/>
        <ellipse cx="130" cy="199" rx="7" ry="11" fill="#353840"/>
        <path fill-rule="evenodd" clip-rule="evenodd" d="M94.001 165.898L128.854 192.652L130 191.202L131.147 192.652L166 165.898L161.064 159.652L130 183.498L98.9369 159.652L94.001 165.898Z" fill="#353840"/>
        </svg>

        <svg id="bottom_rectangle" width="67" height="2" viewBox="0 0 67 2" fill="none" xmlns="http://www.w3.org/2000/svg">
        <path d="M0 4C0 1.79086 1.79086 0 4 0H63C65.2091 0 67 1.79086 67 4H0Z" fill="#FFD011"/>
        </svg>

        <svg id="point" width="18" height="18" viewBox="0 0 18 18" fill="none" xmlns="http://www.w3.org/2000/svg">
        <circle cx="9" cy="9" r="9" fill="currentColor"/>
        </svg>

        <svg id="point_grey" width="16" height="16" fill="currentColor" viewBox="0 0 24 24" xmlns="http://www.w3.org/2000/svg">
        <circle cx="8" cy="8" r="8" fill="currentColor"/>
        </svg>

        <svg id="like" width="25" height="23" viewBox="0 0 25 23" fill="currentColor" xmlns="http://www.w3.org/2000/svg">
        <path d="M12.3333 22.0917L10.5933 20.5331C8.57325 18.7147 6.90325 17.1462 5.58325 15.8274C4.26325 14.5086 3.21325 13.3244 2.43325 12.275C1.65325 11.2264 1.10845 10.2624 0.798852 9.38323C0.488452 8.50403 0.333252 7.60484 0.333252 6.68568C0.333252 4.80739 0.963252 3.23881 2.22325 1.97996C3.48325 0.721102 5.05325 0.0916748 6.93325 0.0916748C7.97325 0.0916748 8.96325 0.311475 9.90325 0.751075C10.8433 1.19068 11.6533 1.81011 12.3333 2.60939C13.0133 1.81011 13.8233 1.19068 14.7633 0.751075C15.7033 0.311475 16.6933 0.0916748 17.7333 0.0916748C19.6133 0.0916748 21.1833 0.721102 22.4433 1.97996C23.7033 3.23881 24.3333 4.80739 24.3333 6.68568C24.3333 7.60484 24.1785 8.50403 23.8689 9.38323C23.5585 10.2624 23.0133 11.2264 22.2333 12.275C21.4533 13.3244 20.4033 14.5086 19.0833 15.8274C17.7633 17.1462 16.0933 18.7147 14.0733 20.5331L12.3333 22.0917ZM12.3333 18.8546C14.2533 17.1362 15.8333 15.6623 17.0733 14.433C18.3133 13.2046 19.2933 12.1359 20.0133 11.2272C20.7333 10.3176 21.2332 9.50791 21.5133 8.79816C21.7933 8.0892 21.9333 7.38504 21.9333 6.68568C21.9333 5.48677 21.5333 4.48768 20.7333 3.68841C19.9333 2.88913 18.9333 2.4895 17.7333 2.4895C16.7933 2.4895 15.9233 2.75405 15.1233 3.28317C14.3233 3.81309 13.7733 4.48768 13.4733 5.30693H11.1933C10.8933 4.48768 10.3433 3.81309 9.54325 3.28317C8.74325 2.75405 7.87325 2.4895 6.93325 2.4895C5.73325 2.4895 4.73325 2.88913 3.93325 3.68841C3.13325 4.48768 2.73325 5.48677 2.73325 6.68568C2.73325 7.38504 2.87325 8.0892 3.15325 8.79816C3.43325 9.50791 3.93325 10.3176 4.65325 11.2272C5.37325 12.1359 6.35325 13.2046 7.59325 14.433C8.83325 15.6623 10.4133 17.1362 12.3333 18.8546Z" fill="currentColor"/>
        <path d="M12.3333 18.8546C14.2533 17.1362 15.8333 15.6623 17.0733 14.433C18.3133 13.2046 19.2933 12.1359 20.0133 11.2272C20.7333 10.3176 21.2332 9.50791 21.5133 8.79816C21.7933 8.0892 21.9333 7.38504 21.9333 6.68568C21.9333 5.48677 21.5333 4.48768 20.7333 3.68841C19.9333 2.88913 18.9333 2.4895 17.7333 2.4895C16.7933 2.4895 15.9233 2.75405 15.1233 3.28317C14.3233 3.81309 13.7733 4.48768 13.4733 5.30693H11.1933C10.8933 4.48768 10.3433 3.81309 9.54325 3.28317C8.74325 2.75405 7.87325 2.4895 6.93325 2.4895C5.73325 2.4895 4.73325 2.88913 3.93325 3.68841C3.13325 4.48768 2.73325 5.48677 2.73325 6.68568C2.73325 7.38504 2.87325 8.0892 3.15325 8.79816C3.43325 9.50791 3.93325 10.3176 4.65325 11.2272C5.37325 12.1359 6.35325 13.2046 7.59325 14.433C8.83325 15.6623 10.4133 17.1362 12.3333 18.8546Z" fill="currentColor"/>
        </svg>

    </defs>

</svg>
