<svg width="13" height="8" viewBox="0 0 13 8" fill="none" xmlns="http://www.w3.org/2000/svg">
<path d="M1.17625 6.9955C1.34543 7.1669 1.57485 7.26318 1.81407 7.26318C2.05329 7.26318 2.28271 7.1669 2.45189 6.9955L6.91756 2.46998L11.3832 6.9955C11.5534 7.16204 11.7813 7.25419 12.0178 7.25211C12.2543 7.25003 12.4806 7.15388 12.6479 6.98437C12.8151 6.81486 12.91 6.58555 12.9121 6.34584C12.9141 6.10613 12.8232 5.87519 12.6589 5.70276L7.55538 0.530863C7.3862 0.359468 7.15677 0.263184 6.91756 0.263184C6.67834 0.263184 6.44891 0.359468 6.27973 0.530863L1.17625 5.70276C1.00712 5.87421 0.912109 6.10671 0.912109 6.34913C0.912109 6.59156 1.00712 6.82406 1.17625 6.9955Z" fill="white"/>
</svg>
