<svg width="12" height="21" viewBox="0 0 12 21" fill="none" xmlns="http://www.w3.org/2000/svg">
<path d="M0.458879 0.462242C0.165059 0.758305 0 1.1598 0 1.57843C0 1.99707 0.165059 2.39856 0.458879 2.69462L8.21692 10.5095L0.458879 18.3244C0.173386 18.6222 0.0154122 19.021 0.0189831 19.4349C0.022554 19.8489 0.187384 20.2449 0.47797 20.5376C0.768557 20.8303 1.16165 20.9963 1.57259 20.9999C1.98352 21.0035 2.37942 20.8444 2.67501 20.5568L11.5411 11.6257C11.8349 11.3297 12 10.9282 12 10.5095C12 10.0909 11.8349 9.6894 11.5411 9.39334L2.67501 0.462242C2.3811 0.166269 1.98253 0 1.56695 0C1.15136 0 0.752787 0.166269 0.458879 0.462242Z" fill="#8A939B"/>
</svg>
