<svg width="12" height="21" viewBox="0 0 12 21" fill="none" xmlns="http://www.w3.org/2000/svg">
<path d="M11.5411 20.5378C11.8349 20.2417 12 19.8402 12 19.4216C12 19.0029 11.8349 18.6014 11.5411 18.3054L3.78308 10.4905L11.5411 2.67556C11.8266 2.3778 11.9846 1.979 11.981 1.56505C11.9774 1.1511 11.8126 0.755127 11.522 0.46241C11.2314 0.169693 10.8384 0.00365819 10.4274 6.08977e-05C10.0165 -0.0035364 9.62058 0.155596 9.32499 0.44318L0.45888 9.37428C0.16506 9.67034 9.5537e-07 10.0718 9.18772e-07 10.4905C8.82174e-07 10.9091 0.16506 11.3106 0.458879 11.6067L9.32499 20.5378C9.6189 20.8337 10.0175 21 10.4331 21C10.8486 21 11.2472 20.8337 11.5411 20.5378Z" fill="#8A939B"/>
</svg>
