<svg width="48" height="48" viewBox="0 0 48 48" fill="none" xmlns="http://www.w3.org/2000/svg">
<mask id="mask0_113_523" style="mask-type:alpha" maskUnits="userSpaceOnUse" x="0" y="0" width="48" height="48">
<rect width="48" height="48" fill="#D9D9D9"/>
</mask>
<g mask="url(#mask0_113_523)">
<circle cx="24" cy="24" r="23" fill="#353840" fill-opacity="0.37"/>
<path d="M11.5 35.9833C13.3417 34.6833 15.2649 33.6542 17.2698 32.8958C19.2733 32.1375 21.4667 31.7583 23.85 31.7583C26.2333 31.7583 28.4274 32.1375 30.4323 32.8958C32.4358 33.6542 34.3583 34.6833 36.2 35.9833C37.6806 34.5028 38.8816 32.7333 39.8032 30.675C40.7233 28.6167 41.1833 26.3417 41.1833 23.85C41.1833 19.0472 39.4955 14.9573 36.1198 11.5802C32.7427 8.2045 28.6528 6.51667 23.85 6.51667C19.0472 6.51667 14.958 8.2045 11.5823 11.5802C8.20522 14.9573 6.51667 19.0472 6.51667 23.85C6.51667 26.3417 6.97744 28.6167 7.899 30.675C8.81911 32.7333 10.0194 34.5028 11.5 35.9833ZM23.85 24.6083C22.1167 24.6083 20.6542 24.0125 19.4625 22.8208C18.2708 21.6292 17.675 20.1667 17.675 18.4333C17.675 16.7 18.2708 15.2375 19.4625 14.0458C20.6542 12.8542 22.1167 12.2583 23.85 12.2583C25.5833 12.2583 27.0458 12.8542 28.2375 14.0458C29.4292 15.2375 30.025 16.7 30.025 18.4333C30.025 20.1667 29.4292 21.6292 28.2375 22.8208C27.0458 24.0125 25.5833 24.6083 23.85 24.6083ZM23.85 42.7C21.2139 42.7 18.7497 42.2125 16.4573 41.2375C14.1636 40.2625 12.1681 38.9264 10.4708 37.2292C8.77361 35.5319 7.4375 33.5364 6.4625 31.2427C5.4875 28.9503 5 26.4861 5 23.85C5 21.2139 5.4875 18.7489 6.4625 16.4552C7.4375 14.1628 8.77361 12.1681 10.4708 10.4708C12.1681 8.77361 14.1636 7.4375 16.4573 6.4625C18.7497 5.4875 21.2139 5 23.85 5C26.4861 5 28.9511 5.4875 31.2448 6.4625C33.5372 7.4375 35.5319 8.77361 37.2292 10.4708C38.9264 12.1681 40.2625 14.1628 41.2375 16.4552C42.2125 18.7489 42.7 21.2139 42.7 23.85C42.7 26.4861 42.2125 28.9503 41.2375 31.2427C40.2625 33.5364 38.9264 35.5319 37.2292 37.2292C35.5319 38.9264 33.5372 40.2625 31.2448 41.2375C28.9511 42.2125 26.4861 42.7 23.85 42.7ZM23.85 41.1833C25.8722 41.1833 27.8858 40.8136 29.8907 40.074C31.8941 39.333 33.6 38.3306 35.0083 37.0667C33.6 35.9111 31.9483 34.9903 30.0532 34.3042C28.1566 33.6181 26.0889 33.275 23.85 33.275C21.6111 33.275 19.5347 33.6087 17.6208 34.276C15.7069 34.9448 14.0639 35.875 12.6917 37.0667C14.1 38.3306 15.8066 39.333 17.8115 40.074C19.8149 40.8136 21.8278 41.1833 23.85 41.1833ZM23.85 23.0917C25.15 23.0917 26.2514 22.6403 27.1542 21.7375C28.0569 20.8347 28.5083 19.7333 28.5083 18.4333C28.5083 17.1333 28.0569 16.0319 27.1542 15.1292C26.2514 14.2264 25.15 13.775 23.85 13.775C22.55 13.775 21.4486 14.2264 20.5458 15.1292C19.6431 16.0319 19.1917 17.1333 19.1917 18.4333C19.1917 19.7333 19.6431 20.8347 20.5458 21.7375C21.4486 22.6403 22.55 23.0917 23.85 23.0917Z" fill="#8A939B"/>
</g>
</svg>
