<svg width="40" height="40" viewBox="0 0 40 40" fill="none" xmlns="http://www.w3.org/2000/svg">
<rect width="40" height="40" rx="4" fill="#FFD011"/>
<path d="M22.859 22.8291C22.859 25.6449 22.859 28.2944 22.859 30.9438C22.9387 31.6659 22.7415 32.3914 22.3087 32.9686C21.876 33.5459 21.2411 33.9302 20.5369 34.0413C20.1295 34.1418 19.7046 34.1437 19.2963 34.0468C18.888 33.9499 18.5076 33.7569 18.1855 33.4833C17.8635 33.2096 17.6087 32.8628 17.4416 32.4708C17.2745 32.0787 17.1997 31.6522 17.2232 31.2254C17.2232 28.512 17.2232 25.7985 17.2232 22.8291H10.4327C9.81762 22.8291 9.17747 22.8291 8.56243 22.8291C7.89593 22.8341 7.25256 22.5802 6.76299 22.119C6.27341 21.6578 5.97434 21.0239 5.92653 20.346C5.86217 19.999 5.86894 19.6421 5.94642 19.2978C6.02389 18.9535 6.1704 18.6294 6.37672 18.3456C6.58303 18.0619 6.8447 17.8248 7.14525 17.6492C7.4458 17.4736 7.77874 17.3634 8.12311 17.3254C9.73395 17.18 11.3514 17.1245 12.9681 17.159H17.2232C17.2232 14.4583 17.2232 11.9113 17.2232 9.36422C17.2232 7.16274 18.2525 5.88281 19.9972 5.88281C21.7419 5.88281 22.8465 7.16274 22.859 9.33862C22.859 11.8985 22.859 14.4583 22.859 17.159H27.679C28.9342 17.159 30.0889 17.159 31.2939 17.159C32.0375 17.1556 32.752 17.4526 33.2813 17.9851C33.8106 18.5177 34.1115 19.2423 34.1181 20.0004C34.1178 20.3888 34.0383 20.773 33.8848 21.1284C33.7312 21.4838 33.5068 21.8028 33.2259 22.0652C32.9451 22.3275 32.6138 22.5275 32.2531 22.6524C31.8924 22.7773 31.5102 22.8244 31.1308 22.7907C28.4321 22.8419 25.7209 22.8291 22.859 22.8291Z" fill="#202225"/>
</svg>
