<svg width="16" height="16" viewBox="0 0 16 16" fill="none" xmlns="http://www.w3.org/2000/svg">
<path fill-rule="evenodd" clip-rule="evenodd" d="M11.2438 10.1743L15.2788 14.2093C15.4206 14.3512 15.5003 14.5437 15.5002 14.7443C15.5001 14.945 15.4204 15.1374 15.2784 15.2792C15.1365 15.421 14.9441 15.5006 14.7434 15.5006C14.5428 15.5005 14.3504 15.4207 14.2086 15.2788L10.1736 11.2438C8.96735 12.1781 7.45053 12.6177 5.93166 12.4733C4.4128 12.3289 3.00599 11.6113 1.99743 10.4665C0.988869 9.3217 0.454313 7.83566 0.502509 6.31071C0.550705 4.78576 1.17803 3.33645 2.25687 2.25761C3.33571 1.17877 4.78503 0.551437 6.30998 0.503241C7.83493 0.455045 9.32096 0.989602 10.4658 1.99816C11.6106 3.00673 12.3282 4.41353 12.4726 5.9324C12.617 7.45126 12.1773 8.96809 11.2431 10.1743H11.2438ZM6.50007 11.0001C7.69354 11.0001 8.83814 10.5259 9.68205 9.68203C10.526 8.83812 11.0001 7.69353 11.0001 6.50005C11.0001 5.30658 10.526 4.16199 9.68205 3.31807C8.83814 2.47416 7.69354 2.00005 6.50007 2.00005C5.3066 2.00005 4.162 2.47416 3.31809 3.31807C2.47418 4.16199 2.00007 5.30658 2.00007 6.50005C2.00007 7.69353 2.47418 8.83812 3.31809 9.68203C4.162 10.5259 5.3066 11.0001 6.50007 11.0001Z" fill="#8A939B"/>
</svg>
