<svg id="buy-avatar" width="260" height="260" viewBox="0 0 260 260" fill="none" xmlns="http://www.w3.org/2000/svg">
<path d="M65.7505 240.397H193.598C203.089 240.378 212.407 237.851 220.611 233.072C228.815 228.293 235.615 221.43 240.324 213.177C238.805 209.122 236.77 205.279 234.27 201.745C225.597 190.065 170.939 172.743 168.518 170.788C164.928 166.87 161.578 162.738 158.486 158.416H157.942V147.255C160.822 143.63 163.307 139.706 165.355 135.551C166.848 131.275 167.795 126.826 168.172 122.312C177.141 118.18 178.327 103.753 178.698 95.6365C178.846 92.1969 177.438 91.504 175.684 91.8752C176.054 90.539 176.351 89.4007 176.548 88.2129C179.258 78.6614 180.409 68.7345 179.958 58.8154L183.764 58.9391C178.284 48.7969 170.251 40.2662 160.462 34.1937L165.058 34.0205C155.51 26.3512 143.859 21.7688 131.651 20.8807L134.122 19C122.786 20.9739 112.241 26.1215 103.704 33.8472C101.024 32.6085 98.203 31.7027 95.3032 31.15L99.5285 34.8123C92.8543 35.5019 86.513 38.0764 81.2435 42.2359L85.2711 42.5576C79.8853 48.7165 75.507 55.6902 72.2986 63.22L76.4745 62.7004C78.3047 71.8551 80.6978 80.8879 83.6403 89.7471C83.6403 90.0688 83.6403 90.4153 83.6403 90.7369C83.6027 91.132 83.6027 91.5297 83.6403 91.9247C82.1083 91.7762 80.9469 92.6423 81.1693 95.7603C81.5647 103.852 82.6519 118.279 91.6709 122.411C92.0448 126.926 92.9914 131.375 94.4878 135.65C96.4929 139.705 98.9197 143.537 101.728 147.082V158.688H101.209C98.1064 163.01 94.7481 167.141 91.152 171.061C88.681 173.015 34.0728 190.337 25.3998 202.017C22.7812 205.481 20.6295 209.275 19 213.301C23.7264 221.534 30.5368 228.374 38.7445 233.132C46.9523 237.889 56.2673 240.395 65.7505 240.397Z" fill="currentColor"/>
<ellipse cx="130" cy="199" rx="7" ry="11" fill="#353840"/>
<path fill-rule="evenodd" clip-rule="evenodd" d="M94.001 165.898L128.854 192.652L130 191.202L131.147 192.652L166 165.898L161.064 159.652L130 183.498L98.9369 159.652L94.001 165.898Z" fill="#353840"/>
</svg>
