<svg id="buy-gem" width="260" height="260" viewBox="0 0 260 260" fill="none" xmlns="http://www.w3.org/2000/svg">
<path d="M130 252C127.835 252 125.673 251.225 123.979 249.676L64.7808 195.519C63.0058 193.897 62 191.629 62 189.255V70.8873C62 68.4915 63.0261 66.203 64.832 64.5768L124.03 11.2775C125.716 9.75915 127.857 9 130.001 9C132.143 9 134.283 9.7585 135.968 11.2775L195.167 64.5768C196.971 66.2037 198 68.4909 198 70.8873V189.255C198 191.629 196.992 193.896 195.217 195.519L136.019 249.676C134.327 251.225 132.163 252 130 252Z" fill="#FFD011"/>
<path d="M129.978 207.118C129.974 207.117 129.971 207.116 129.969 207.116L89.8584 170.344V90.0737L129.968 53.8843C129.973 53.8828 129.985 53.8799 130.002 53.8799C130.011 53.8799 130.018 53.8807 130.024 53.8818C130.028 53.8824 130.03 53.883 130.032 53.8835L170.144 90.0745V170.343L130.032 207.116C130.03 207.117 130.027 207.117 130.023 207.118C130.02 207.119 130.017 207.119 130.013 207.119C130.009 207.12 130.005 207.12 130.001 207.12C129.992 207.12 129.984 207.119 129.978 207.118ZM170.202 170.289L170.201 170.29L170.202 170.289Z" stroke="currentColor" stroke-width="12"/>
</svg>
