<svg width="31" height="18" viewBox="0 0 31 18" fill="none" xmlns="http://www.w3.org/2000/svg">
<path d="M29.8767 1.58899C29.4587 1.17419 28.8919 0.941162 28.3009 0.941162C27.7099 0.941162 27.1431 1.17419 26.7251 1.58899L15.6923 12.5415L4.6595 1.58899C4.23914 1.18594 3.67612 0.962919 3.09173 0.967961C2.50733 0.973002 1.94831 1.2057 1.53506 1.61594C1.12181 2.02618 0.887407 2.58114 0.88233 3.16128C0.877251 3.74143 1.10191 4.30034 1.50791 4.71765L14.1165 17.2345C14.5345 17.6493 15.1013 17.8823 15.6923 17.8823C16.2833 17.8823 16.8501 17.6493 17.2681 17.2345L29.8767 4.71765C30.2946 4.30272 30.5293 3.74003 30.5293 3.15332C30.5293 2.56661 30.2946 2.00392 29.8767 1.58899Z" fill="white"/>
</svg>
