<svg xmlns="http://www.w3.org/2000/svg" xmlns:xlink="http://www.w3.org/1999/xlink">
    <defs>
        <svg id="arrow_bottom" width="30" height="30" viewBox="0 0 30 30" fill="none"
            xmlns="http://www.w3.org/2000/svg">
            <path
                d="M23.8517 11.1858C23.603 10.9389 23.2657 10.8003 22.9141 10.8003C22.5624 10.8003 22.2252 10.9389 21.9765 11.1858L15.412 17.7025L8.84743 11.1858C8.59731 10.9459 8.26232 10.8132 7.9146 10.8162C7.56688 10.8192 7.23426 10.9577 6.98838 11.2018C6.7425 11.4459 6.60303 11.7761 6.60001 12.1213C6.59699 12.4665 6.73066 12.799 6.97223 13.0473L14.4744 20.4948C14.723 20.7416 15.0603 20.8803 15.412 20.8803C15.7636 20.8803 16.1009 20.7416 16.3496 20.4948L23.8517 13.0473C24.1003 12.8004 24.24 12.4656 24.24 12.1165C24.24 11.7674 24.1003 11.4326 23.8517 11.1858Z"
                fill="currentColor" />
        </svg>

        <svg id="arrow_right" width="30" height="30" viewBox="0 0 30 30" fill="none"
            xmlns="http://www.w3.org/2000/svg">
            <path
                d="M11.1853 6.14829C10.9385 6.39699 10.7998 6.73424 10.7998 7.08589C10.7998 7.43754 10.9385 7.7748 11.1853 8.02349L17.702 14.588L11.1853 21.1525C10.9454 21.4027 10.8128 21.7377 10.8158 22.0854C10.8188 22.4331 10.9572 22.7657 11.2013 23.0116C11.4454 23.2575 11.7756 23.3969 12.1208 23.4C12.466 23.403 12.7985 23.2693 13.0468 23.0277L20.4943 15.5256C20.7412 15.2769 20.8798 14.9397 20.8798 14.588C20.8798 14.2364 20.7412 13.8991 20.4943 13.6504L13.0468 6.14829C12.7999 5.89968 12.4651 5.76001 12.116 5.76001C11.7669 5.76001 11.4321 5.89968 11.1853 6.14829V6.14829Z"
                fill="white" />
        </svg>

        <svg id="video" width="110" height="100" viewBox="0 0 110 100" fill="none"
            xmlns="http://www.w3.org/2000/svg">
            <path
                d="M54.7727 0C24.5802 0 0.0761719 22.4 0.0761719 50C0.0761719 77.6 24.5802 100 54.7727 100C84.9652 100 109.469 77.6 109.469 50C109.469 22.4 84.9652 0 54.7727 0ZM43.8334 72.5V27.5L76.6514 50L43.8334 72.5Z"
                fill="currentColor" />
        </svg>

        <svg id="copy" width="24" height="24" viewBox="0 0 24 24" fill="none"
            xmlns="http://www.w3.org/2000/svg">
            <mask id="mask0_5656_96762" style="mask-type:alpha" maskUnits="userSpaceOnUse" x="0"
                y="0" width="24" height="24">
                <rect width="24" height="24" fill="#D9D9D9" />
            </mask>
            <g mask="url(#mask0_5656_96762)">
                <path
                    d="M5 22C4.45 22 3.979 21.8043 3.587 21.413C3.19567 21.021 3 20.55 3 20V6H5V20H16V22H5ZM9 18C8.45 18 7.97933 17.8043 7.588 17.413C7.196 17.021 7 16.55 7 16V4C7 3.45 7.196 2.979 7.588 2.587C7.97933 2.19567 8.45 2 9 2H18C18.55 2 19.021 2.19567 19.413 2.587C19.8043 2.979 20 3.45 20 4V16C20 16.55 19.8043 17.021 19.413 17.413C19.021 17.8043 18.55 18 18 18H9ZM9 16H18V4H9V16Z"
                    fill="currentColor" />
            </g>
        </svg>

    </defs>
</svg>