<svg xmlns="http://www.w3.org/2000/svg" xmlns:xlink="http://www.w3.org/1999/xlink">
    <defs>
        <svg id="arrow_right" width="30" height="30" viewBox="0 0 30 30" fill="none" xmlns="http://www.w3.org/2000/svg">
            <path d="M11.1853 6.14829C10.9385 6.39699 10.7998 6.73424 10.7998 7.08589C10.7998 7.43754 10.9385 7.7748 11.1853 8.02349L17.702 14.588L11.1853 21.1525C10.9454 21.4027 10.8128 21.7377 10.8158 22.0854C10.8188 22.4331 10.9572 22.7657 11.2013 23.0116C11.4454 23.2575 11.7756 23.3969 12.1208 23.4C12.466 23.403 12.7985 23.2693 13.0468 23.0277L20.4943 15.5256C20.7412 15.2769 20.8798 14.9397 20.8798 14.588C20.8798 14.2364 20.7412 13.8991 20.4943 13.6504L13.0468 6.14829C12.7999 5.89968 12.4651 5.76001 12.116 5.76001C11.7669 5.76001 11.4321 5.89968 11.1853 6.14829V6.14829Z" fill="white"/>
            </svg>
            
    </defs>
</svg>