<svg width="820" height="312" fill="none" xmlns="http://www.w3.org/2000/svg"><path fill="#FED01C" d="M0 0h820v312H0z"/><path d="M151.667 171H150v-1.667a1.667 1.667 0 0 0-3.333 0v3.334a1.663 1.663 0 0 0 1.666 1.666h3.334a1.663 1.663 0 0 0 1.666-1.666 1.667 1.667 0 0 0-1.666-1.667Zm10 3.333H160v-1.666a1.67 1.67 0 0 0-.488-1.179 1.67 1.67 0 0 0-2.357 0 1.667 1.667 0 0 0-.488 1.179V176a1.667 1.667 0 0 0 1.666 1.667h3.334a1.667 1.667 0 0 0 0-3.334Zm20-6.666a1.667 1.667 0 0 0-1.667 1.666V171h-1.667a1.667 1.667 0 0 0 0 3.333h3.334a1.663 1.663 0 0 0 1.666-1.666v-3.334a1.663 1.663 0 0 0-1.666-1.666Zm-10 3.333a1.67 1.67 0 0 0-1.179.488 1.67 1.67 0 0 0-.488 1.179v1.666h-1.667a1.667 1.667 0 0 0 0 3.334h3.334a1.667 1.667 0 0 0 1.666-1.667v-3.333a1.667 1.667 0 0 0-1.666-1.667ZM175 144.333h13.333a1.665 1.665 0 0 0 1.667-1.666V136a1.666 1.666 0 0 0-1.667-1.667 1.665 1.665 0 0 0-1.666 1.667v5H175a1.667 1.667 0 0 0 0 3.333Zm6.667 13.334a1.667 1.667 0 1 0 0-3.334 1.667 1.667 0 0 0 0 3.334Zm-40-13.334H155a1.667 1.667 0 1 0 0-3.333h-11.667v-5c0-.442-.175-.866-.488-1.178A1.668 1.668 0 0 0 140 136v6.667a1.667 1.667 0 0 0 1.667 1.666Zm25 16.667h1.666a1.67 1.67 0 0 0 1.179-.488 1.67 1.67 0 0 0 0-2.357 1.667 1.667 0 0 0-1.179-.488h-1.666V156a1.667 1.667 0 0 0-3.334 0v1.667h-1.666a1.667 1.667 0 1 0 0 3.333h1.666v8.333c0 .442.176.866.488 1.179a1.67 1.67 0 0 0 2.358 0 1.67 1.67 0 0 0 .488-1.179V161Z" fill="#202225"/><path d="M188.333 164.333a1.665 1.665 0 0 0 1.667-1.666v-13.334a1.663 1.663 0 0 0-1.667-1.666H175c-.442 0-.866.175-1.178.488a1.664 1.664 0 0 0-.489 1.178v13.334c0 .442.176.866.489 1.178.312.313.736.488 1.178.488h13.333ZM186.667 161h-10v-10h10v10Zm-38.334-3.333a1.67 1.67 0 0 0 1.179-.488 1.67 1.67 0 0 0 0-2.357 1.668 1.668 0 1 0-1.179 2.845Z" fill="#202225"/><path d="M156.667 149.333a1.667 1.667 0 0 0-1.667-1.666h-13.333a1.667 1.667 0 0 0-1.667 1.666v13.334a1.667 1.667 0 0 0 1.667 1.666H155a1.667 1.667 0 0 0 1.667-1.666v-13.334ZM153.333 151v10h-10v-10h10Zm10-8.333a1.666 1.666 0 1 0-3.333 0V151a1.667 1.667 0 0 0 3.333 0v-8.333Zm6.667 0a1.667 1.667 0 1 0-3.333 0V151a1.667 1.667 0 1 0 3.333 0v-8.333Zm16.667 26.666a1.667 1.667 0 0 0 1.666 1.667h3.334a1.667 1.667 0 0 0 0-3.333h-3.334a1.663 1.663 0 0 0-1.666 1.666Zm-45-1.666h-3.334a1.663 1.663 0 0 0-1.666 1.666 1.667 1.667 0 0 0 1.666 1.667h3.334a1.667 1.667 0 0 0 0-3.333Zm50 6.666h-3.334c-.442 0-.866.176-1.178.489a1.667 1.667 0 0 0 1.178 2.845h3.334a1.667 1.667 0 0 0 0-3.334Zm-50 0h-3.334c-.442 0-.866.176-1.178.489a1.667 1.667 0 0 0 1.178 2.845h3.334a1.667 1.667 0 0 0 0-3.334Zm207.666-25a1.663 1.663 0 0 0-1.666-1.666h-10a1.682 1.682 0 0 0-1.173.494 1.682 1.682 0 0 0-.494 1.172V156a1.666 1.666 0 0 0 1.667 1.667H341a1.668 1.668 0 0 0 0-3.334h-1.667V151H346v1.667a1.667 1.667 0 0 0 3.333 0v-3.334Zm35-1.666h-10a1.663 1.663 0 0 0-1.666 1.666v3.334a1.663 1.663 0 0 0 1.666 1.666 1.667 1.667 0 0 0 1.667-1.666V151h6.667v3.333H381a1.667 1.667 0 0 0-1.667 1.667c0 .442.176.866.489 1.178.312.313.736.489 1.178.489h3.333A1.668 1.668 0 0 0 386 156v-6.667a1.667 1.667 0 0 0-1.667-1.666Zm-20 33.333h-6.666a1.67 1.67 0 0 0-1.179.488 1.667 1.667 0 0 0 1.179 2.845h6.666a1.667 1.667 0 1 0 0-3.333ZM371 157.667h-3.333a1.667 1.667 0 0 0-1.667 1.666v3.334a1.667 1.667 0 0 0 3.333 0V161H371a1.67 1.67 0 0 0 1.179-.488 1.67 1.67 0 0 0 0-2.357 1.667 1.667 0 0 0-1.179-.488Zm-18.333 5a1.663 1.663 0 0 0 1.666 1.666 1.665 1.665 0 0 0 1.667-1.666v-3.334a1.662 1.662 0 0 0-1-1.536 1.66 1.66 0 0 0-.667-.13H351c-.442 0-.866.175-1.178.488a1.664 1.664 0 0 0 0 2.357c.312.312.736.488 1.178.488h1.667v1.667Z" fill="#202225"/><path d="M387.667 127.667h-3.334a1.663 1.663 0 0 0-1.666 1.666 1.667 1.667 0 0 0 1.666 1.667H386v3.333h-1.667a1.667 1.667 0 0 0-1.666 1.667c0 .442.175.866.488 1.178.312.313.736.489 1.178.489H386V141h-6.667v-5a1.667 1.667 0 1 0-3.333 0v5h-6.667v-8.333a1.667 1.667 0 1 0-3.333 0V151h-10v-18.333a1.667 1.667 0 1 0-3.333 0V141H346v-5a1.667 1.667 0 1 0-3.333 0v5H336v-3.333h1.667c.442 0 .866-.176 1.178-.489a1.667 1.667 0 0 0-1.178-2.845H336V131h1.667a1.667 1.667 0 0 0 0-3.333h-3.334a1.663 1.663 0 0 0-1.666 1.666v13.334a1.668 1.668 0 0 0 1.666 1.666h18.334v8.334a1.663 1.663 0 0 0 1.666 1.666h5v8.334c0 .442.176.866.489 1.178a1.667 1.667 0 0 0 2.845-1.178v-8.334h5a1.663 1.663 0 0 0 1.666-1.666v-8.334h18.334a1.663 1.663 0 0 0 1.666-1.666v-13.334a1.663 1.663 0 0 0-1.666-1.666Zm-18.334 41.666a1.663 1.663 0 0 0-1.666-1.666h-13.334a1.663 1.663 0 0 0-1.666 1.666V176c0 .442.175.866.488 1.178.312.313.736.489 1.178.489h3.334c.442 0 .866-.176 1.178-.489a1.667 1.667 0 0 0-1.178-2.845H356V171h10v3.333h-1.667a1.667 1.667 0 0 0 0 3.334h3.334c.442 0 .866-.176 1.178-.489.313-.312.488-.736.488-1.178v-6.667Z" fill="#202225"/><g clip-path="url(#a)" fill="#202225"><path d="M293 137.667a1.67 1.67 0 0 0-.488-1.179 1.67 1.67 0 0 0-1.179-.488H283a1.67 1.67 0 0 0-1.179.488 1.67 1.67 0 0 0 0 2.357c.313.313.737.488 1.179.488h6.667v3.334h-3.334a1.663 1.663 0 0 0-1.666 1.666 1.667 1.667 0 0 0 1.666 1.667h5a1.67 1.67 0 0 0 1.179-.488 1.67 1.67 0 0 0 .488-1.179v-6.666Zm-36.667-5a1.667 1.667 0 1 0 0-3.333 1.667 1.667 0 0 0 0 3.333Zm13.334 0a1.667 1.667 0 1 0 0-3.334 1.667 1.667 0 0 0 0 3.334Z"/><path d="M276.333 179.333a1.667 1.667 0 0 0 1.667-1.666v-5h1.667a1.667 1.667 0 0 0 1.666-1.667v-26.667a1.663 1.663 0 0 0-1.666-1.666H278v-5a1.67 1.67 0 0 0-.488-1.179 1.67 1.67 0 0 0-1.179-.488h-6.666a1.67 1.67 0 0 0-1.179.488 1.67 1.67 0 0 0-.488 1.179v1.666h-3.333v-11.666a1.67 1.67 0 0 0-.488-1.179 1.67 1.67 0 0 0-2.357 0 1.668 1.668 0 0 0-.489 1.179v11.666H258v-1.666a1.67 1.67 0 0 0-.488-1.179 1.67 1.67 0 0 0-1.179-.488h-6.666a1.67 1.67 0 0 0-1.179.488 1.67 1.67 0 0 0-.488 1.179v5h-1.667a1.663 1.663 0 0 0-1.666 1.666V171a1.667 1.667 0 0 0 1.666 1.667H248v5a1.667 1.667 0 0 0 1.667 1.666h5V181a1.667 1.667 0 0 0 1.666 1.667h13.334a1.667 1.667 0 0 0 1.666-1.667v-1.667h5ZM274.667 176h-3.334v-3.333h3.334V176ZM248 169.333v-10h6.667v10H248ZM254.667 146v10H248v-10h6.667ZM278 146v10h-6.667v-10H278Zm-6.667 23.333v-10H278v10h-6.667ZM258 171v-5h10v6.667h-10V171Zm10-8.333h-10v-10h10v10ZM258 176h10v3.333h-10V176Zm13.333-33.333v-3.334h3.334v3.334h-3.334Zm-3.333 0v6.666h-10v-6.666h10Zm-16.667-3.334h3.334v3.334h-3.334v-3.334Zm0 36.667v-3.333h3.334V176h-3.334Zm-11.666-33.333h-3.334v-3.334H243a1.667 1.667 0 1 0 0-3.333h-8.333a1.67 1.67 0 0 0-1.179.488 1.67 1.67 0 0 0-.488 1.179v6.666c0 .442.176.866.488 1.179a1.67 1.67 0 0 0 1.179.488h5a1.667 1.667 0 0 0 0-3.333Zm10 40h-5V181c0-.442-.176-.866-.489-1.178a1.664 1.664 0 0 0-2.357 0 1.667 1.667 0 0 0-.488 1.178v3.333c0 .442.176.866.488 1.179A1.67 1.67 0 0 0 243 186h6.667a1.667 1.667 0 0 0 0-3.333Zm35-1.667a1.667 1.667 0 0 0-3.334 0v1.667h-5a1.663 1.663 0 0 0-1.666 1.666 1.667 1.667 0 0 0 1.666 1.667H283a1.67 1.67 0 0 0 1.179-.488 1.67 1.67 0 0 0 .488-1.179V181Z"/></g><path d="M432.333 152.667h10a1.67 1.67 0 0 0 1.179-.488A1.67 1.67 0 0 0 444 151v-5h5a1.67 1.67 0 0 0 1.179-.488 1.67 1.67 0 0 0 0-2.357 1.667 1.667 0 0 0-1.179-.488h-5v-5a1.67 1.67 0 0 0-.488-1.179 1.67 1.67 0 0 0-1.179-.488h-6.666a1.67 1.67 0 0 0-1.179.488 1.667 1.667 0 0 0 1.179 2.845h5v10h-8.334a1.667 1.667 0 0 0-1.666 1.667 1.667 1.667 0 0 0 1.666 1.667Z" fill="#202225"/><path d="M435.667 146a1.667 1.667 0 1 0 0-3.334 1.667 1.667 0 0 0 0 3.334Zm41.666-1.667v-5h5a1.665 1.665 0 0 0 1.667-1.666 1.667 1.667 0 0 0-1.667-1.667h-6.666a1.67 1.67 0 0 0-1.179.488 1.67 1.67 0 0 0-.488 1.179v5h-5c-.442 0-.866.175-1.178.488a1.664 1.664 0 0 0 0 2.357c.312.312.736.488 1.178.488h5v5c0 .442.176.866.488 1.179a1.67 1.67 0 0 0 1.179.488h10a1.667 1.667 0 0 0 0-3.334h-8.334v-5Z" fill="#202225"/><path d="M482.333 142.667a1.663 1.663 0 0 0-1.666 1.666 1.667 1.667 0 0 0 1.666 1.667 1.67 1.67 0 0 0 1.179-.488 1.67 1.67 0 0 0 0-2.357 1.667 1.667 0 0 0-1.179-.488Zm-28.333 5a1.667 1.667 0 1 0 3.334 0 1.667 1.667 0 0 0-3.334 0Zm6.667 0a1.663 1.663 0 0 0 1.666 1.666 1.667 1.667 0 1 0-1.666-1.666Zm16.666 10a1.667 1.667 0 0 0-1.666-1.667h-33.334a1.667 1.667 0 0 0-1.666 1.667V161a1.667 1.667 0 1 0 3.333 0v-1.667h30V161c0 .442.176.866.488 1.179a1.67 1.67 0 0 0 2.357 0c.313-.313.488-.737.488-1.179v-3.333Zm-41.666-25h11.666v5a1.667 1.667 0 0 0 1.667 1.666h20a1.667 1.667 0 0 0 1.667-1.666v-5h11.666a1.67 1.67 0 0 0 1.179-.488 1.667 1.667 0 0 0-1.179-2.846H469a1.668 1.668 0 0 0-1.667 1.667v5h-16.666v-5a1.667 1.667 0 0 0-1.667-1.667h-13.333A1.668 1.668 0 0 0 434 131c0 .442.176.866.488 1.179a1.67 1.67 0 0 0 1.179.488Z" fill="#202225"/><path d="M462.333 162.667h-6.666a1.666 1.666 0 1 0 0 3.333h6.666a1.667 1.667 0 1 0 0-3.333Zm10 16.666h-1.666V171a1.667 1.667 0 0 0-3.334 0v1.667h-16.666V171a1.667 1.667 0 0 0-3.334 0v8.333h-1.666a1.668 1.668 0 0 0 0 3.334h6.666a1.67 1.67 0 0 0 1.179-.488 1.67 1.67 0 0 0 0-2.357 1.668 1.668 0 0 0-1.179-.489h-1.666V176h16.666v3.333h-1.666a1.668 1.668 0 0 0 0 3.334h6.666a1.67 1.67 0 0 0 1.179-.488 1.67 1.67 0 0 0 0-2.357 1.668 1.668 0 0 0-1.179-.489Zm-33.333-10h-5V166h1.667a1.667 1.667 0 0 0 0-3.333h-3.334a1.663 1.663 0 0 0-1.666 1.666V171a1.667 1.667 0 0 0 1.666 1.667h5V176h-1.666a1.67 1.67 0 0 0-1.179.488 1.667 1.667 0 0 0 1.179 2.845H439a1.667 1.667 0 0 0 1.667-1.666V171a1.667 1.667 0 0 0-1.667-1.667Zm48.333-5a1.663 1.663 0 0 0-1.666-1.666h-3.334a1.664 1.664 0 0 0-1.666 1.666 1.667 1.667 0 0 0 1.666 1.667H484v3.333h-5c-.442 0-.866.176-1.178.489a1.664 1.664 0 0 0-.489 1.178v6.667c0 .442.176.866.489 1.178.312.313.736.488 1.178.488h3.333a1.665 1.665 0 0 0 1.667-1.666 1.667 1.667 0 0 0-1.667-1.667h-1.666v-3.333h5a1.667 1.667 0 0 0 1.666-1.667v-6.667ZM635 152.667c-.442 0-.866.175-1.178.488a1.664 1.664 0 0 0-.489 1.178V156h-5a1.667 1.667 0 0 0 0 3.333H635a1.667 1.667 0 0 0 1.667-1.666v-3.334a1.667 1.667 0 0 0-1.667-1.666ZM628.333 146h13.334a1.667 1.667 0 0 0 0-3.333H630v-10h8.333a1.67 1.67 0 0 0 1.179-.488 1.67 1.67 0 0 0 0-2.357 1.668 1.668 0 0 0-1.179-.489h-10c-.442 0-.866.176-1.178.489a1.663 1.663 0 0 0-.488 1.178v13.333a1.667 1.667 0 0 0 1.666 1.667Zm20-6.667h5v5a1.668 1.668 0 0 0 3.334 0v-5h5a1.663 1.663 0 0 0 1.666-1.666 1.667 1.667 0 0 0-1.666-1.667h-13.334a1.667 1.667 0 0 0 0 3.333Zm34.267-9.716a1.669 1.669 0 0 0-.933-.284h-10a1.668 1.668 0 0 0 0 3.334H680v10h-11.667a1.663 1.663 0 0 0-1.666 1.666 1.667 1.667 0 0 0 1.666 1.667h13.334a1.667 1.667 0 0 0 1.666-1.667V131a1.657 1.657 0 0 0-.733-1.383Zm-14.267 19.716h-6.666A1.668 1.668 0 0 0 660 151v13.333c0 .442.176.866.488 1.179a1.67 1.67 0 0 0 2.357 0c.313-.313.488-.737.488-1.179v-5H665a1.667 1.667 0 1 0 0-3.333h-1.667v-3.333h3.334v1.666a1.667 1.667 0 1 0 3.333 0V151a1.667 1.667 0 0 0-1.667-1.667Zm-13.333 0c-.442 0-.866.176-1.178.489a1.664 1.664 0 0 0-.489 1.178v6.667c0 .442.176.866.489 1.178a1.667 1.667 0 0 0 2.845-1.178V151a1.667 1.667 0 0 0-1.667-1.667ZM681.667 156h-5v-1.667a1.667 1.667 0 0 0-3.334 0v3.334c0 .442.176.866.489 1.178.312.313.736.488 1.178.488h6.667a1.663 1.663 0 0 0 1.666-1.666 1.667 1.667 0 0 0-1.666-1.667Zm-23.334 23.333h-6.666a1.668 1.668 0 0 0 0 3.334h6.666a1.67 1.67 0 0 0 1.179-.488 1.67 1.67 0 0 0 0-2.357 1.668 1.668 0 0 0-1.179-.489ZM650 171a1.666 1.666 0 0 0-1.667-1.667H645c-.442 0-.866.176-1.178.489a1.664 1.664 0 0 0 0 2.357c.312.312.736.488 1.178.488h1.667v1.666a1.667 1.667 0 1 0 3.333 0V171Zm15-1.667h-3.333A1.668 1.668 0 0 0 660 171v3.333c0 .442.176.866.488 1.179a1.67 1.67 0 0 0 2.357 0c.313-.313.488-.737.488-1.179v-1.666H665a1.67 1.67 0 0 0 1.179-.488 1.67 1.67 0 0 0 0-2.357 1.668 1.668 0 0 0-1.179-.489ZM645 156a1.67 1.67 0 0 0-1.179.488 1.67 1.67 0 0 0 0 2.357c.313.313.737.488 1.179.488h1.667v5a1.667 1.667 0 1 0 3.333 0V151a1.667 1.667 0 0 0-1.667-1.667h-6.666A1.668 1.668 0 0 0 640 151v3.333c0 .442.176.866.488 1.179a1.67 1.67 0 0 0 2.357 0c.313-.313.488-.737.488-1.179v-1.666h3.334V156H645Zm-78-6.667a1.667 1.667 0 0 0 0 3.334h6.667c.442 0 .866-.176 1.178-.489.313-.312.488-.736.488-1.178v-15h5a1.67 1.67 0 0 0 1.667-1.667 1.663 1.663 0 0 0-1.667-1.666h-6.666a1.667 1.667 0 0 0-1.667 1.666v15h-5Zm-20 13.334h-6.667a1.663 1.663 0 0 0-1.666 1.666v15h-5a1.67 1.67 0 0 0-1.179.488 1.67 1.67 0 0 0 0 2.357c.313.313.737.489 1.179.489h6.666A1.668 1.668 0 0 0 542 181v-15h5a1.67 1.67 0 0 0 1.179-.488 1.67 1.67 0 0 0 0-2.357 1.667 1.667 0 0 0-1.179-.488Zm36.667-6.67H567a1.667 1.667 0 1 0 0 3.333h16.667a1.666 1.666 0 0 0 0-3.333Zm-35 1.67a1.67 1.67 0 0 0-.488-1.179A1.67 1.67 0 0 0 547 156h-16.667a1.667 1.667 0 0 0 0 3.333H547a1.667 1.667 0 0 0 1.667-1.666Zm15 11.666h-13.334c-.442 0-.866.176-1.178.489a1.663 1.663 0 0 0-.488 1.178v10a1.667 1.667 0 0 0 1.666 1.667h5v1.666a1.668 1.668 0 0 0 3.334 0v-1.666h5a1.667 1.667 0 0 0 1.666-1.667v-10c0-.442-.175-.866-.488-1.178a1.664 1.664 0 0 0-1.178-.489Zm-11.667 10v-6.666h10v6.666h-10Zm28.333 0h-5v-15a1.663 1.663 0 0 0-1.666-1.666H567c-.442 0-.866.175-1.178.488a1.664 1.664 0 0 0 0 2.357c.312.312.736.488 1.178.488h5v15a1.667 1.667 0 0 0 1.667 1.667h6.666a1.666 1.666 0 0 0 0-3.334ZM533.667 136h5v15c0 .442.175.866.488 1.178.312.313.736.489 1.178.489H547a1.668 1.668 0 0 0 0-3.334h-5v-15a1.667 1.667 0 0 0-1.667-1.666h-6.666a1.667 1.667 0 1 0 0 3.333ZM547 139.333h5v5c0 .442.176.866.488 1.179a1.67 1.67 0 0 0 1.179.488h6.666a1.67 1.67 0 0 0 1.667-1.667v-5h5a1.667 1.667 0 0 0 1.667-1.666v-10a1.67 1.67 0 0 0-.488-1.179 1.67 1.67 0 0 0-2.357 0 1.668 1.668 0 0 0-.489 1.179V136H562v-1.667a1.663 1.663 0 0 0-1.667-1.666h-1.666V131a1.67 1.67 0 0 0-.488-1.179 1.67 1.67 0 0 0-2.357 0 1.668 1.668 0 0 0-.489 1.179v1.667h-1.666a1.667 1.667 0 0 0-1.667 1.666V136h-3.333v-8.333a1.67 1.67 0 0 0-.488-1.179 1.67 1.67 0 0 0-2.357 0 1.668 1.668 0 0 0-.489 1.179v10c0 .442.176.866.489 1.178.312.313.736.488 1.178.488ZM558.667 136v6.667h-3.334V136h3.334Zm1.666 13.333h-6.666A1.668 1.668 0 0 0 552 151v13.333c0 .442.176.866.488 1.179a1.67 1.67 0 0 0 1.179.488h6.666a1.67 1.67 0 0 0 1.179-.488 1.67 1.67 0 0 0 .488-1.179V151a1.667 1.667 0 0 0-1.667-1.667Zm-1.666 3.334v10h-3.334v-10h3.334Z" fill="#202225"/><defs><clipPath id="a"><path fill="#fff" transform="translate(233 126)" d="M0 0h60v60H0z"/></clipPath></defs></svg>